<svg xmlns="http://www.w3.org/2000/svg" width="16" height="16" viewBox="0 0 135.164 120.924" fill="red" xmlns:v="https://vecta.io/nano">
    <path d="M45.248 87.12c-.142.013-.336.061-.358.223-.031.218.096.414.163.614.036.109.123.306-.002.351-.082.029-.223-.071-.234.088-.015.216.087.421.068.638-.015.172-.221-.028-.254.106-.049.192-.007.393.011.587l.036.682.017 1.296c-.002.121-.065.224-.169.29-.111.071-.099.216-.103.33l.032 1.953c-.005.184-.074.381-.004.555.046.116.153.214.283.208.122-.005.238.057.299.167.057.102-.045.257.102.318.127.053.026.202.101.288s.179-.017.287.067c.25.194.424.462.655.678l1.124 1.078c.087.091.064.201.109.332s.184-.002.298.103.179.404.335.342c.102-.04.182-.034.166.121s.202.094.295.083c.122-.014.251-.045.37.022.202.113.35.334.579.379.183.035.374-.101.547-.016.101.05.126.2.255.208l1.592.018c.242-.007.503.064.728-.028.107-.044.128-.189.25-.218.287-.07.568.078.859.048.114-.012.16-.126.235-.195.093-.085.21.003.325-.083.277-.206.359-.681.707-.74.082-.014.235.067.224-.088-.006-.097-.087-.195-.041-.289s.251-.184.213-.003c-.012.056-.008.172.051.063s.144-.204.161-.323c.019-.129-.097-.287.016-.392.074-.07.208-.128.161-.26-.052-.144.12-.037.184-.083.1-.071.027-.203-.003-.293-.041-.127.083-.08.177-.101.132-.03.057-.198.024-.281-.05-.125.064-.078.168-.111.152-.048.022-.268.043-.389.022-.126.19-.138.221-.263.06-.244-.115-.493-.025-.731.043-.115.19-.141.226-.264.072-.248-.026-.503-.053-.75-.016-.148-.061-.36.076-.446a.32.32 0 0 0 .166-.284l.002-2.248c.007-.116-.016-.223-.126-.296-.14-.092-.144-.282-.135-.431.018-.312.115-.615.089-.933-.01-.126-.132-.18-.206-.267s-.058-.205-.061-.309c-.02-.77.7-2.694.032-2.31-.103.059-.176-.133-.207-.211-.095-.235-.023-.492.015-.73.031-.194.036-.406-.075-.58-.077-.122-.151-.254-.139-.408s.105-.346-.011-.474c-.071-.079-.19-.126-.201-.251-.015-.171.1-.35.022-.512-.05-.104-.259-.141-.203-.271.05-.117-.051-.212-.135-.28-.096-.077-.299-.139-.263-.264s.005-.248-.121-.296c-.154-.059.024-.268-.109-.3s-.26.08-.394.006c-.097-.054-.374-.094-.29-.167.05-.044.269.035.222-.092-.044-.12-.153-.078-.267-.111-.12-.035-.144-.194-.273-.225-.287-.07-.568.078-.859.048-.114-.012-.161-.125-.235-.195-.134-.129-.332.067-.467-.049-.081-.069-.133-.229-.268-.179s-.177-.123-.268-.179c-.097-.059-.218-.052-.327-.052-.165.001-.345-.039-.494.033-.104.05-.141.259-.271.203-.117-.05-.212.051-.28.135-.077.096-.139.298-.264.263s-.244-.007-.336.075c-.031.028-.212.134-.144.118.092-.022.243-.024.168.129-.063.13-.207.099-.318.063-.12-.039-.219.059-.324.1-.053.02-.219.155-.069.104.111-.038.163.017.105.145-.066.145-.238-.03-.313.108-.057.106-.151.112-.282.134-.113.018-.2.108-.282.183-.199.182-.466.34-.548.599-.034.107.007.212-.073.323-.091.126-.206.34-.356.297-.089-.025-.22-.041-.204.103.012.107.096.241-.001.329-.079.071-.193.128-.165.268.024.119-.082.212-.158.287-.207.201-.627.293-.637.591-.004.108.029.234-.099.297-.106.052-.146.18-.093.279s.039.254-.119.212c-.184-.049-.03.168-.115.245-.079.071-.203.131-.165.268s-.134.177-.191.27c-.158.257-.271.538-.406.807zm20.994 2.377c-.195.079-.242.309-.246.499-.007.371.079.734.091 1.106.004.133-.081.231-.184.31-.12.092-.078.259-.052.384.024.119.056.294-.074.354-.116.054-.136.168-.138.289l.005 1.769c.003.135.201.149.215.281.018.175-.105.36-.031.521.053.115.229-.069.259.112.037.226-.034.45-.061.674-.014.116-.018.274.105.325s.043.19.101.288c.052.088.301-.065.22.1-.055.113.049.207.13.272.096.077.306.141.263.264-.046.133.027.244.133.33s.254.149.269.289c.012.112-.094.23-.028.33.056.086.308-.064.223.099-.063.121.066.194.145.261.11.093-.004.233.115.349s.317.197.353.386c.017.087-.111.164.018.227.102.05.228.169.338.089.118-.085.241.13.215.214-.028.09-.04.225.108.197.103-.02.199-.064.316.013.09.06.08.187-.05.162-.057-.011-.174-.005-.063.051s.216.203.324.155c.133-.059.238.048.316.146s.157.255.303.256c.108.001.295-.135.324-.014.019.082-.063.266.108.201.13-.05.177.113.259.176.141.109.352-.097.467.049.074.095.16.23.302.178.131-.048.274-.028.36.103.094.144.289.137.44.123.257-.024.511-.104.774-.063.127.02.152.178.26.222.193.079.404-.087.594 0 .099.046.121.198.245.203.69.024 1.388.113 2.072.018.104-.014.244.029.312-.065.063-.087.137-.177.262-.178.158-.001.329.103.476.023.102-.056.132-.199.263-.218.177-.024.361.098.53.019.102-.048.144-.269.261-.202.088.051.165.004.131-.11-.046-.155.163-.114.245-.072.123.063.13-.036.15-.161.019-.118.087-.227.153-.326.095-.142.007.149.073.167.106.029.183-.096.173-.223-.009-.119.109-.199.197-.257s.291-.266.298-.153c.005.092-.107.183-.185.232-.086.055-.3.259-.302.139-.004-.166-.013-.342.05-.498.056-.139.211-.035.277.035.073.077.348.12.276-.024-.056-.113.055-.199.102-.296.031-.064.1-.077.078.015-.031.131-.029.393-.162.37-.074-.013-.007-.192.011-.266.063-.258.18-.517.153-.786-.011-.11-.132-.254-.046-.331.145-.13.042.32.049.097.005-.152-.008-.605.024-.456.024.11-.05.232-.193.162-.107-.052.057-.321-.114-.229-.144.077-.163-.111-.119-.212.049-.112-.001-.231-.108-.29s-.115-.193-.098-.304c.022-.145.06-.298-.02-.441-.111-.198-.342-.34-.375-.566-.034-.233.061-.459.045-.694-.012-.175-.322.034-.243-.131.054-.115-.012-.238-.094-.311-.097-.085-.087-.218-.091-.335-.005-.135.123-.414-.012-.406-.092.006-.2-.042-.185-.191.014-.139-.109-.251-.186-.356-.086-.119-.21-.23-.231-.379-.024-.177.107-.365.019-.53-.055-.103-.219-.132-.215-.268s.101-.324-.053-.403c-.106-.054-.182-.171-.126-.287.044-.09.048-.296-.101-.23-.142.063-.151-.137-.143-.235.018-.225.1-.444.084-.672-.011-.157-.194-.007-.239-.083-.068-.114-.027-.258.002-.378s.019-.254-.101-.315c-.108-.056-.126-.181-.116-.295.013-.139.107-.317-.002-.427-.079-.08-.187-.136-.213-.26-.066-.312.066-.619.083-.929.008-.146.035-.355-.105-.431-.112-.061-.168-.171-.159-.308.013-.185.071-.366.05-.553-.02-.173-.241.046-.26-.124-.014-.122.109-.263.011-.364-.081-.083-.245-.15-.194-.289.057-.157.016-.314-.112-.435-.165-.157-.359-.278-.488-.482-.063-.1.114-.19-.027-.267-.11-.06-.227-.196-.347-.152-.085.03.128.221.021.099-.134-.153-.312-.278-.378-.48-.045-.139-.111-.403-.262-.348a.23.23 0 0 1-.307-.135c-.054-.144-.36.022-.275-.113.078-.124-.048-.19-.169-.182-.072.005-.291.04-.234.04.157.002.385.122.473-.01.046-.07-.138-.102-.199-.118-.156-.042-.314-.093-.481-.067-.138.022-.345.094-.423-.045-.067-.12-.178-.091-.319-.148-.111-.045-.18-.179-.298-.2a1.54 1.54 0 0 0-.394-.006c-.143.012-.284-.037-.426-.024-.189.017-.296.191-.38.336-.074.127-.227.035-.322.094s-.14.259-.259.19c-.099-.057-.127.02-.114.127.022.174-.161.028-.264.108-.136.106-.186.407-.362.365-.078-.018-.237-.047-.181.088.049.118-.061.216-.131.295-.192.217-.383.449-.636.591-.082.046-.255-.072-.248.095.005.119.069.233.005.358-.058.115-.188.15-.31.155-.174.006-.33.203-.264.367.052.131 0 .263-.107.356s-.343.154-.291.287c.04.102.034.179-.121.166s-.085.211-.071.305.064.393-.071.305c-.09-.058-.157.004-.127.114.037.133-.172.154-.19.259-.02.116.027.262-.122.323-.156.064-.047.236-.122.336l-.557.743z" />
    <path d="M46.474 43.899c.441-.086.787-.309 1.19-.35s1.058.099 1.19-.35c.078-.266.719-.378.6-.421-.357-.13-.103-.143.296-.419.251-.174.132-.275.504-.561.197-.152.113.275.28-.14.138-.342.151-.73.35-1.05.19-.305-.227-.803-.423-1.046-.116-.143-.239-.435-.343-.53-.399-.365-.794-.811-.704-1.295.041-.22.138-.217-.14-.42-.33-.241-.054.012-.21-.35-.147-.341-.34-.803-.674-.918-.539-.187-.57-.742-1.076-.972-.432-.196-.608-.722-.989-1.028-.469-.377-.573-1.02-.96-1.425-.105-.11-.408.004-.446-.4-.059-.622-.863-.491-1.124-.944-.183-.318-.377-.444-.603-.502-.413-.107-.697-.413-1.028-.679-.364-.293-.648-.421-.785-.809-.053-.15-.232.051-.381-.287-.207-.468-.721-.689-.826-1.207-.076-.373-.906-.534-.851-.87.077-.474-.491-.403-.689-.67-.185-.251-.367-.436-.554-.429-.268.01-.677-.126-.671-.378.008-.342-.552-.574-.589-.581-.378-.069-.737-.608-1.124-.858-.427-.276-.788-.622-1.243-.903-.365-.226-.707-.657-.861-.912-.145-.241-.294-.317-.59-.359-.504-.072-1.397-.106-1.239-.652.072-.249-.31-.028-.486-.446-.059-.141.051-.095-.432-.232-.323-.092-.723-.587-.867-.812-.17-.266-.653-1.139-.81-.785-.19.429-.294-.116-.617-.495-.204-.239-.17-.431-.625-.51-.288-.05-.731-.122-.727-.379.006-.399-.196-.543-.609-.511-.367.028-.28-.348-.659-.492-.372-.141-.583-.245-.609-.64-.001-.02-.542-.476-.623-.758-.137-.472-.674-.682-.77-1.19-.065-.346-.282-.658-.568-.863-.314-.224-.617-.414-.693-.818-.065-.346-.31-.624-.568-.863-.291-.27-.81-.5-.721-.899.133-.602-.521-.729-.927-1.11-.333-.313-.482-.547-.873-.876s-.573-.584-.911-.905c-.323-.306-.483-.369-.698-.726s-.575-.561-.834-.783c-.094-.081-.355.115-.35-.14.009-.476-.32-.877-.829-.81s-.79-.632-1.278-.721c-.221-.04-.778.007-.694-.429.053-.278-.249-.28-.49-.28-.202 0-.054-.029-.239-.094-.398-.139-.855.146-.812-.326.026-.283-.194-.478-.56-.42-.415.066-.614-.093-.777-.34-.264-.401-.514-.952-1.043-.92-.457.027-.595-.166-.98-.56-.179-.183-.39-.069-.56-.42-.16-.329-.443-.286-.627-.425C7.754.1 7.2.303 7.452.169c.36-.191.121-.287-.158.12-.343.501-.096-.497-.034.039.044.385-.197.082-.349.302-.134.195-.5.489-.84.56-.298.062-.295.067-.567.34-.305.307-.301.592-.763.64-.348.036-1.17.567-.829.551.041-.002-.067.216-.355.229-.513.022-.312.681-.707.901-.244.135-.069.481-.283.869-.191.346-.388.693-.219 1.076.145.329-.207.379-.149.565.133.425.122.734-.119 1.131-.214.352-.442.781-.318 1.243.16.594.106 1.226.178 1.838.066.565-.071 1.145.021 1.71.088.542-.047 1.045-.161 1.511-.122.495-.197 1.03-.14 1.611.053.542-.362 1.063-.177 1.556.228.605.384 1.191-.076 1.643-.316.31-.433.671-.334 1.093.134.573-.186.995-.126 1.644.038.41.205.774.177 1.124-.066.839.451 1.832-.025 2.531-.334.491-.459 1.011-.323 1.589.111.47-.146.835-.135 1.292.016.647-.08 1.239-.137 1.911L.381 31.65c-.068.582.389 1.294.017 1.748-.335.409-.185 1.037-.154 1.543.053.839-.586 1.929.014 2.518.332.327.427.801.292 1.254-.132.443-.252.828.105 1.191.41.417.231.94.331 1.496.112.615-.341 1.046-.147 1.687.13.43-.195.343-.158.816.045.569-.142 1.093-.169 1.673-.037.799-.138 1.602-.019 2.396.079.522.316.978.187 1.561-.115.519-.174.911.1 1.424.181.339-.117.797.177 1.067.345.318.449.778.295 1.231-.221.652-.243 1.183.108 1.756.241.393-.003 1.024.018 1.494l.15 1.644c.012.528.14 1.072.48 1.506.201.257.31.482.244.876-.078.466.183.843.13 1.266-.069.547-.28 1.139.083 1.603.239.306.476.645.346 1.001-.202.553-.215 1 .109 1.486.283.426.451.847.321 1.343-.136.522.11.911.208 1.386.103.499.09.998.451 1.472.2.262.574.571.428.908-.167.387-.168.431.132.632.457.306-.063 1.065.249 1.391.285.298.579.639.451 1.13-.135.519.074.588.28.98.211.403.305.895.558 1.331.199.343.193.762.349 1.121.109.251.416.272.363.614-.065.419.098.732.201 1.135.119.468.452.921.372 1.386-.073.424.052.742.188 1.135s.404.712.359 1.12c-.049.442.379.713.414 1.12.042.485.035.798.403 1.322.281.401.317.844.435 1.339.057.241-.249.046.062.303s.518.53.52.877c.002.304-.13.978.149.93.245-.043.334.08.376.457.048.423-.113.831.153 1.215.184.265.104.767.416.914.286.135.233.633.504.97.283.351-.045 1.371.34 1.197.214-.096.353.268.268.413-.06.101-.003-.037.209.222.156.19.324.286.364.625.048.418.204.445.42.77.263.395.411.837.778 1.169.331.299.948.543.876.961-.102.594.435.842.785 1.232.367.411.7.833.923 1.329.096.214.271.648.64.802.402.168 1.317.019 1.181.458-.13.418.168.032.435.323.255.278.56.703.856.666.133-.017.553.516.557.212.005-.383-.021-.893-.238-1.062-.241-.187-.485-.633-.247-.93.125-.156-.093-.781-.109-.68-.053.319-.052-.367-.133-.49-.193-.29-.202-.322-.347-.672-.18-.435-.264-.493-.494-.869-.252-.413-.584-.801-.7-1.26-.076-.298-.104-.699-.42-.84-.228-.102-.23-.919-.287-.77-.122.32-.169-.394-.273-.56-.298-.473-.258-.985-.523-1.492-.206-.394.052-.932-.317-1.239-.281-.233-.506-.509-.442-.781.084-.354.138-.73-.15-.937-.242-.174-.331-.407-.26-.729.054-.244.059-.635-.159-.642-.331-.011-.405-.397-.273-.766.199-.557-.305-.98-.256-1.465s-.17-.912-.412-1.332c-.19-.331-.236-.67-.356-1.05-.115-.363-.104-.733-.28-1.051-.188-.339-.367-.73-.349-1.12.016-.342-.241-.525-.354-.84-.151-.418-.219-.961-.49-1.331-.358-.487-.503-.962-.42-1.68.064-.558-.205-.973-.422-1.469-.18-.411-.446-.757-.418-1.191.025-.39-.035-.718-.14-1.05-.099-.312-.011-.653-.168-.983-.161-.337-.391-.65-.289-1.004.139-.483.254-1.074-.103-1.304-.273-.176-.339-.342-.3-.638.054-.413.127-.829-.12-1.182-.26-.37-.523-.746-.449-1.211.085-.534-.13-1.078-.22-1.552-.06-.314-.298-.573-.198-.9.142-.465-.011-.828-.184-1.238-.142-.338-.333-.628-.236-1.002.14-.544-.196-.927-.097-1.535.055-.333-.227-.247-.137-.722.06-.313-.151-.213-.158-.686-.005-.35.193-.729-.128-1.018-.347-.312-.481-.693-.323-1.15.146-.422-.113-.751-.112-1.091.003-.586.575-1.645-.001-1.759-.382-.075-.388-.624-.297-1.062.116-.562.312-1.228-.123-1.599-.367-.313-.277-.744-.301-1.236-.045-.918.718-2.137.039-2.754-.451-.41-.182-.962-.267-1.54l-.179-1.234c-.144-.637-.254-1.216.125-1.702.348-.448.164-1.096.179-1.642.017-.617-.223-1.152-.197-1.729l.063-6.03c.033-.617-.188-1.176-.202-1.76-.018-.74.52-1.651.04-2.219-.337-.399-.089-1.045-.173-1.541-.1-.59.215-1.062.204-1.662-.009-.516.059-1.003.109-1.558.025-.279.195-.445.158-.757-.056-.479.339-.902.164-1.322-.222-.533.116-.924.133-1.417.018-.513-.515-1.576-.009-1.558.274.01.243-.437.267-.744.07-.89-.64-2.023-.032-2.673.444-.474-.262-1.331.158-1.752.431-.432.269-.998.298-1.632.046-1.042-.693-2.335-.017-3.129.258-.304.418-.747.28-1.12-.158-.426.26-.621.286-.944l.036-.38c.064-.383.627.054.86-.057.306-.146.596-.245.498.122-.08.3.028.403.31.291.241-.096-.154-.301.11-.011.256.281.635.28.577.606s.078.077.338.43c.103.139-.028.071.28.28.254.172.38.764.766.784.434.022.47.296.754.586.344.351.829.451.927.955.069.357.315.202.336.259.112.3.17.355.417.48.353.179.644.571.787.801.302.486.789.579 1.116 1.059.294.432.542.868 1.074 1.155.186.1.038.319.243.48.308.241.062.459.368.808.36.41.757.815.84 1.33.035.217.021-.025.197.145.12.117.054.141.19.391.207.379.563.336.593.795.015.219.086.646.409.67.225.017.508.02.521.375.018.492.574.526.926.986.248.324.568.66.961.982.4.327.63.779 1.194 1.01.358.147.942.365 1.031.669.062.214.089.152.47.297.195.074.167.13.429.274.305.168.454.209.921.339.54.15 1.375.201 1.6.739s.862.287 1.097.784.787.391 1.155.717c.143.127.406.256.486.385.217.35.493.635.913.773.471.155.877.377 1.165.751s.507.919 1.007.891c.601-.034.469.346.98.7.481.332.592 1.055 1.086 1.251.466.184.443.512.926.779.505.279.607.704 1.078 1.038.389.276.713.654.782 1.048.102.576.716.917 1.169 1.066.362.119.785.085.855.585.069.494.618.693.966.955.325.246-.092.093.2.357.379.342.221.978.552 1.378.106.128.088.318.304.441.244.138-.111-.035.134.275.3.38.387.803.563 1.326.088.26.336.78.657.856.262.062 1.036.351.754.409-.496.102.638.602.425.418-.386-.334-.605.018.191.002a2.64 2.64 0 0 0 .84-.14zm30.265 10.643c.14-.351-.177-.482-.389-.703-.106-.11-.192-.075-.254-.237-.056-.146-.053-.275-.171-.254-.194.035-.129.025-.176-.191-.052-.237.235.153.069-.107-.098-.154-.001-.217-.168-.19-.189.031-.224-.176-.204-.346.024-.204-.23-.283-.208-.609.019-.278.19-.282.248-.497.071-.265.143.217.167-.079.013-.159.075.063.136-.105.063-.174.161-.316.38-.347.255-.037.414-.279.669-.392.269-.119.5-.254.745-.467.239-.208.443-.453.741-.523.201-.047.357-.18.545-.297.256-.16.5-.198.791-.275s.546-.23.843-.319c.255-.076.525-.084.744-.269s.6.039.741-.226c.147-.277.961-.292.686-.306-.327-.016.262-.046.332-.111.127-.12.284-.251.455-.192.353.121.586-.187.904-.177.296.01.644.062.79-.199.087-.154.336-.309.597-.302.289.007.746.067.809-.186.047-.189.367-.292.625-.289.302.004.433-.356.745-.317.293.037.507-.171.792-.248.302-.081.541-.256.866-.253.31.003.637.09.917-.093.308-.201.626-.194.998-.214.313-.017.604-.22.936-.099.373.136.594-.139.979-.078.279.044.486.066.751-.103s.579-.207.864-.276.491-.331.819-.318c.315.012.538-.176.855-.253.305-.074-.198-.046.135-.143.257-.075.448-.315.731-.454.16-.079.234-.174.406-.148.201.03.255-.109.498-.212.291-.123.503-.448.841-.374.282.062.44.017.621-.219.106-.138.234-.196.416-.185.292.018.539-.218.844-.287.236-.053.507-.065.672-.247.199-.219.472-.216.715-.242.207-.022.312-.117.521-.227.237-.124.616.09.81-.16.163-.21.361-.224.603-.23.34-.008.677-.142.948-.092.359.066.637-.306.969-.205.307.093.561.144.803-.083.156-.147.239-.211.438-.215.244-.004.545.029.73-.129.229-.197.453-.391.761-.357.261.029.453-.192.698-.235.305-.053.659-.007.937-.252.221-.195.539-.269.84-.277.235-.006.42-.207.638-.134.302.102.539.125.8-.084.238-.191.48-.257.767-.205a1.31 1.31 0 0 0 .777-.08c.286-.102.59-.331.901-.23.287.093.532-.174.769-.089.275.098.423.064.732-.071.179-.078.411.023.538-.139.156-.2.36-.298.621-.193.371.151.586-.117.978-.079.303.029.515-.201.865-.098.389.115.637-.145 1.033-.114.372.029.799-.116 1.13.062.31.166.618.037.991.146.421.123.818.035 1.287.099.426.058.927-.239 1.287 0s.811.099 1.218.099l2.831.029c.357-.019.625-.171 1.034-.141.648.047 1.59-.531 1.949.013.153.232.392.302.643.204.198-.078.149-.079.381.087.202.145.472.331.711.3.073-.01-.054-.006.155.15.271.202.093.576.167.836s.095 1.212.13.89.112.331.102.471c-.027.38.253 1.361-.068 1.149-.27-.179-.321.2-.254.411.112.351-.216.575-.107.949.115.395-.23.615-.077.979s-.186.601-.109.945c.071.32-.104.552-.188.846-.074.256-.021.568-.232.751-.268.233-.168.551-.263.833-.081.24-.373.459-.307.74.04.167.036.159-.125.335-.058.063-.017.052-.171.261s-.049.673-.273.649c-.346-.036-.551.23-.587.548-.021.182-.156.221-.13.386a.78.78 0 0 1-.218.696c-.245.244-.233.564-.367.841-.14.29-.235.528-.277.84-.033.243.04.643-.197.653-.214.009-.235.395-.225.635.012.278-.138.479-.231.761-.073.222-.052-.003-.095.067-.168.276-.259.531-.338.864-.059.25.035.76-.209.751-.179-.006-.259.248-.218.427s-.019.308-.112.475c-.102.183-.342.379-.284.614.077.316.024.262-.19.547-.142.19-.12-.253-.164.032-.039.25-.42.311-.333.616.091.319.049.581-.196.837-.206.215-.468.426-.495.693-.037.371-.196.694-.438.96-.206.226-.188.506-.349.725-.151.205-.022.641-.285.748-.113.046.046.239-.116.24-.149.001-.276.281-.297.446-.018.139-.091.27-.165.367-.165.216-.128.478-.3.677-.203.235-.261.512-.331.812-.06.253.004.545-.194.768-.176.199-.269.463-.307.74-.034.254.071.587-.111.772a.73.73 0 0 0-.192.754c.093.307.131.549-.083.803-.254.3.092.738-.12 1.017-.205.271-.097.687-.09 1.018.031 1.447-.232 2.919.032 4.343.068.364-.153.649-.145.974s-.091.677-.085.962c.012.561.418 1.3.012 1.688-.265.253.196.884-.119 1.001-.176.065.016.513-.175.395s-.117.014-.256.231c-.135.211-.311.394-.54.353-.278-.05-.519-.062-.72.121-.248.227-.643.099-.953.078-.287-.019-.418-.021-.699-.217-.249-.174-.715-.155-.598-.378.064-.121.038.047-.109-.137-.126-.156-.129-.264-.191-.406-.066-.152-.039-.459-.217-.454-.143.004-.08-.402-.198-.396-.243.012-.156-.226-.176-.489-.045-.601 0-1.206 0-1.81l-.029-2.453c-.024-.313-.047-.51.106-.848.093-.206-.079-.486.121-.632.226-.165.219-.379.211-.662-.011-.342.028-.643.072-1.026.036-.31-.059-.607.094-.918.158-.322.075-.681.109-1.062l.089-.943c.007-.304-.014-.526.103-.867.11-.321-.143-.723.09-.983.219-.245.138-.603.132-.916-.023-1.181.291-2.407-.03-3.544-.1-.352.117-.603.111-.918-.004-.199-.094-.404.108-.54.195-.132.217-.31.206-.543-.013-.285.284-.502.19-.794-.089-.275.245-.392.21-.544-.058-.255.22-.453.263-.667.045-.22.333-.352.318-.572-.01-.145-.014.094.098-.061.148-.204.083-.308.281-.533.146-.166.367-.279.314-.544-.038-.193.156-.23.113-.357-.095-.279.097-.178.125-.222.149-.233-.092-.598.203-.712.314-.121.307-.457.252-.789-.04-.243.211.06.205-.246-.006-.322.079-.618.29-.843.19-.202.143-.495.293-.669.211-.246.478-.459.409-.764-.042-.184.004-.317.112-.475.155-.228-.046-.828.252-.792.202.024.285-.276.298-.526.016-.308.26-.541.272-.833.008-.209.24-.553.237-.59-.01-.106.008-.314.129-.428.141-.133.322-.215.276-.468-.037-.197-.046-.52.122-.501.203.023.261-.157.187-.414-.066-.229-.076-.566.11-.576.174-.01.213-.257.227-.51.012-.223.276-.163.146-.425-.142-.288.145-.175.087-.507-.033-.189.166-.104.099-.396-.046-.198-.207-.272.087-.371.251-.084-.039-.513.144-.685.142-.134.318-.461.159-.518-.336-.119-.666-.154-1.019-.16-.414-.007-.974-.304-1.241.012-.219.259-.501.244-.867.222-.303-.019-.535.103-.842.102-.485-.002-1.133-.389-1.46-.026-.235.26-.562.152-.919.197-.344.044-.69.029-1.062.1-.385.073-.779-.008-1.169-.009-.402-.002-.97-.315-1.208.009-.207.282-.665-.137-.85.083-.21.25-.481.287-.805.229-.274-.05-.478-.085-.767.075-.219.121-.512.034-.675.229a.53.53 0 0 1-.536.188c-.273-.051-.456-.032-.767.081-.332.12-.634.115-.947.255-.192.086-.351.208-.564.16-.254-.058-.415.021-.676.108-.269.09-.519.064-.769.197-.232.123-.562-.031-.807.169-.17.138-.792.337-.643.259.397-.208-.08.073-.252.058-.284-.024-.542.145-.798.234-.161.055-.278.165-.466.256-.21.102-.484.152-.719.243-.21.082-.435.108-.628.274-.133.114-.239.311-.411.271-.282-.066-.568-.116-.693.198-.109.273-.383.281-.588.374-.265.121-.524.295-.799.319-.147.013-.353-.012-.403.121-.096.259-.576.015-.858.154-.334.165-.691.267-1.071.137-.36-.123-.783-.245-.936.083-.083.177-.128.269-.321.21-.177-.054-.609.169-.484.186.221.029-.196.242-.284.198-.28-.138-.237-.019-.396.198-.186.253-.444.503-.741.404-.175-.058-.171.115-.249.136-.256.069-.507.012-.721.174-.221.167-.476.19-.761.306-.233.094-.506.089-.749.164-.216.067-.746-.059-.668.179.042.126-.263.186-.369.222-.148.049-.313.067-.446.148s-.151.16-.295.158c-.31-.004-.606-.091-.889.172a1.35 1.35 0 0 1-.432.197c-.276.019-.711-.144-.91.116-.144.188-.335.263-.566.212-.279-.061-.442-.002-.779.072-.199.044-.421-.033-.564.133-.165.191-.362.192-.637.192-.328-.001-.579.284-.92.282-.207-.001-.356.068-.547.19-.163.104-.333.161-.493.256-.175.103-.262.242-.545.248-.349.007-.975-.105-.998.258-.009.139-.324.175-.487.237-.177.067-.014.067-.184.134-.303.12-.606.172-.856.361-.217.164-.49.107-.693.248-.176.122-.463.011-.601.186-.177.224-.481.106-.736.26-.289.174-.576.152-.892.245-.305.09-.692.024-.94.2a.83.83 0 0 1-.613.16c-.299-.03-.531.079-.966-.067-.149-.05-.18-.128-.3-.145-.247-.035-.235-.32-.516-.198-.204.089-.133-.056-.328-.195-.28-.199-.381-.385-.693-.594z" />
    <path d="M47.772 51.547c-.433.021-.888.141-1.317.117-.303-.017-.887-.149-1.009.105-.139.289-.554.068-.852.122-.389.07-.824-.047-1.129.175-.23.168-.509.047-.75.084-.249.038-.449-.008-.486.217-.056.347-.627.337-.943.492s.083.09-.141.214-.573.239-.695.394c-.236.297.062.137-.253.185-.192.029-.24.265-.529.192-.273-.069-.498.108-.525.417-.023.273-.103.302-.186.43-.216.331-.182.749-.297 1.14l-.295 1.139c-.086.248-.124.502-.258.641-.12.124.026.514-.188.498-.341-.025.088.124-.148.198-.129.04-.199.403-.248.594-.076.295-.267.545-.346.841-.1.376-.193.771-.24 1.165-.058.489-.291.916-.409 1.358-.162.604-.276 1.162-.276 1.797 0 .281.002.505-.214.681-.327.266-.284.737-.179 1.173.087.36.001.666-.167.957-.214.37-.104.875-.347 1.238-.197.293.041.676-.126.984-.203.376-.075.734-.057 1.103.015.329.03.588-.213.784-.431.348-.157 1.032-.305 1.557-.125.443-.274.8-.174 1.263.065.304-.159.572-.263.745-.146.24-.178.639-.149.99.03.363.129.816-.179 1.061-.315.25-.216.683-.096 1.079a.89.89 0 0 1-.221.93c-.254.257.007.691-.113 1.008-.177.471-.264.928-.175 1.447.075.436-.123.838-.306 1.208-.22.447-.236.833-.183 1.295.028.249.024.556-.191.58-.295.033-.151.606-.227.913-.062.25-.155.598-.182.397-.044-.333-.041.778-.109 1.123-.083.418-.31.743-.173 1.202.117.39-.105.79-.322 1.125-.177.273-.009.604-.105.888-.151.449-.168.935-.172 1.414-.003.263-.014.493-.168.718-.273.396-.215.974-.164 1.513.044.464.159 1.006-.11 1.396-.287.416-.169.807-.06 1.257.1.412.058.826-.211 1.133-.34.387-.206.904-.191 1.396.013.414.095.798-.21 1.078-.276.253-.098.754-.309 1.076-.356.542.038 1.296-.007 1.944-.027.395.11.736.098 1.124-.013.436.009.822.245 1.178.27.407.155.704.067 1.132-.107.528.212.909.089 1.405-.061.246 0 .402.218.559.279.2.106.624.149.941s.218.385.148.742c-.081.411.056.749.297.891.194.114.198.59.402.84.28.343.289.773.454 1.155.086.199.13.107.134.283.011.392.208.539.532.712.181.097.491.289.237.409-.38.18.47.892.894 1.049.364.135.628.42.857.759.164.242.52.421.845.639.308.206.625.477 1.008.624.413.159.687.362 1.021.62.262.202.425.117.35.337-.108.318.437.28.475.612.042.366.352.571.771.506.353-.055.311.211.516.316l1.207.55c.417.186.905.091 1.289.294.36.191.706.105 1.089.099.47-.007.888.277 1.337.297.44.02.876.2 1.365.117.773-.131 1.568.035 2.348-.018.563-.039 1.111.131 1.585-.198.604-.419 1.471-.001 2.204.02a5.39 5.39 0 0 0 1.389-.138c.402-.092.839.141 1.132-.16.268-.275.745-.096 1.123-.111.289-.011.71.051.78-.182.084-.278.611-.161.898-.319l.742-.396c.351-.221.737-.491 1.169-.484.206.004.467 0 .458-.187-.022-.438.796-.203 1.256-.14.412.057.815.153 1.245.137.451-.016.959.12 1.333-.133.339-.23.821.023 1.232.014l2.871.022c.451.022.886-.188 1.375-.113.561.087 1.038-.23 1.593-.092.504.125 1.013-.084 1.481-.312.453-.221.895-.211 1.385-.25.342-.027.58-.26.921-.231.397.034.787-.118 1.111-.361.288-.216.711-.08 1.029-.254.41-.225.882-.324 1.312-.453.166-.05-.003-.065.184-.135.385-.143.736-.49 1.209-.505.488-.016.956-.222 1.464-.088.449.118.917.022 1.361.112.335.068.744-.061.865-.313.155-.323.642-.516.789-.821.241-.502.87-.762 1.393-.953.341-.125.729-.194 1.039-.401.3-.201.57-.447.891-.198.289.225.154.191.269-.08.162-.383.81-.089 1.219-.113s.776-.13 1.136-.254c.147-.051.783.02.595-.142-.049-.043.495-.213.696-.193.496.048.885-.315 1.212-.718.087-.107.741-.132.514-.183-.152-.034.493-.296.641-.546.235-.397.645-.733 1.085-.863a4 4 0 0 1 1.348-.175c.383.013.807-.142.939-.499.107-.289.227-.295.394-.401.19-.122.376.048.433-.011.115-.117.496-.425.562-.623.099-.298.215-.52.344-.81.139-.312.082-.239.149-.231.217.024.221-.337.306-.541.121-.29.065-.334.337-.152.346.231.546-.706.407-1.205-.053-.192-.064-.331-.159-.528-.16-.331-.157-.723-.347-1.04-.205-.343-.181-.644-.198-.99-.023-.474-.204-.847-.343-1.288-.154-.487-.093-.993-.402-1.405-.274-.365-.303-.909-.443-1.366l-.361-1.088a12.48 12.48 0 0 0-.495-1.203c-.084-.18-.104-.056-.132-.234-.056-.36-.401-.605-.577-.911-.17-.296-.304-.445-.205-.752.117-.363-.238-.633-.433-.944-.225-.36-.275-.792-.473-1.156-.208-.382-.312-.795-.486-1.188-.177-.399-.272-.859-.352-1.286-.072-.389-.155-.789-.347-1.139-.236-.431-.249-.891-.188-1.368.032-.248-.046-.487-.189-.683-.253-.346-.129-.782-.222-1.165a4.77 4.77 0 0 0-.372-1.014c-.165-.318-.327-.658-.2-1.064.143-.457-.052-.907-.087-1.349-.036-.451-.19-.882-.113-1.369.071-.448-.22-.73-.095-1.183.133-.482-.261-.822-.117-1.301.031-.104-.165-.522-.072-.823a1.07 1.07 0 0 0-.225-1.059c-.238-.271-.158-.58-.087-.909.079-.365-.031-.726-.209-1.071-.309-.599.042-1.346-.015-2.018-.044-.51.049-.985.144-1.466s-.163-1.023.037-1.47c.137-.306-.145-.859.154-1.162.333-.338.19-.747.054-1.174-.106-.333.004-.656.201-.901.296-.369.023-.966.033-1.446.01-.434-.162-.772-.276-1.171-.059-.209-.1-.102-.156-.271-.146-.438-.405-.791-.455-1.251-.047-.433-.426-.777-.862-.937-.225-.082-.357-.187-.488-.458-.197-.407-.691-.668-1.143-.733-.398-.057-.695-.318-1.039-.496-.106-.055-.764-.292-.453-.288.317.004-.522-.204-.785-.207-.455-.006-.568-.354-.99-.297-.483.065-.881-.25-1.336-.348a6.93 6.93 0 0 1-1.14-.345l-1.089-.396c-.294-.123-.528-.084-.813-.103-.427-.028-.81-.231-1.277-.098-.531.151-1.156-.125-1.642.122-1.049.534-2.356-.049-3.533 0-.579.024-1.098-.038-1.647-.119-.474-.07-.958.041-1.387-.221-.561-.342-1.312.004-1.968-.008-.509-.009-.978.251-1.503.103-.484-.137-.973.175-1.487.097-.43-.066-.834-.009-1.168.253-.396.31-.809.135-1.268.094-.567-.051-1.134.021-1.7-.001-.535-.02-1.001.064-1.451-.224-.469-.3-1.116-.145-1.635-.391-.471-.223-.99-.114-1.485-.099v.002c-.119-.279-.254-.539-.525-.699-.303-.179-.435-.357-.567-.689-.227-.573-.887-.862-1.312-1.312-.331-.35-.774-.642-.965-1.065-.173-.381-.466-.51-.793-.792-.247-.213-.371-.187-.594-.297-.304-.15-.254-.129-.488-.197-.509-.147-.832-.251-1.3-.191-.537.07-1.054-.267-1.621-.23-.513.034-1.071.152-1.543-.076-.232-.112-.484-.136-.744-.123zm2.823 5.891c.247.003.494.017.739.051.306.042.61-.129.878.103.128.11.464.051.312.316-.033.058.182.134-.041.011-.156-.086-.547.184-.257.103.129-.036.122.34-.035.425-.297.161.207.915-.113 1.045-.248.101-.057.657-.103.94-.068.418.308.853.106 1.172-.112.177.069.601.077.546.03-.222.256.07.365.164.155.132.523-.007.551.171.024.153.252.31.489.374.384.103.698.445 1.036.675s.694.363 1.043.514c.247.107.521.15.743.297.294.195.451.578.885.558.288-.013.199.186.257.381.097.32.254.591.465.895.206.297.68.461.72.84.046.44.494.533.796.774.291.232.671.287.696.734.013.229.282.182.554.192.478.018.965-.089 1.436.005.292.059.468-.168.68-.318l.001.002c.387-.088 1.313.378 1.188 0-.073-.22.593-.107.424-.198-.226-.122.131-.243.269-.198.349.115.703.167.693-.198-.006-.231.081.18.079-.128-.003-.391.082-.703.126-1.129.037-.363.024-.708-.155-.971-.21-.309-.144-.609-.169-1.033l-.081-1.094c-.04-.281-.301-.337-.344-.546-.037-.184.09-.32-.149-.347-.26-.03.227-.003.33 0 .249.006.459.169.709.105.283-.072.195.092.394.093.832.006 1.79.462 2.496.022.387-.241.889-.119 1.343-.121.83-.003 1.758-.416 2.489-.024.322.173.709.16 1.091.144 1.226-.05 2.478-.298 3.68-.05.358.074.737-.099 1.071.103.291.175.667-.061.954.125.231.149.456.286.709.216.409-.112.742.134 1.123.229.292.073.422.204.644.347s.212.237.396.396.329.466.542.405c.223-.064.506.04.512.224.01.297.455.312.34.607-.093.238-.021.368.189.547.393.333-.106.931.182 1.244.265.288.283.662.228 1.054-.056.404.233.767.187 1.154-.04.336-.161.64.076.941.255.325.135.791.132 1.186-.004.682-.485 1.555-.013 2.046.257.268.155.726.076 1.06-.108.455.076.846.139 1.278.06.408-.259.802-.128 1.166.151.419-.099.7-.094 1.123a7.03 7.03 0 0 0 .088 1.109c.053.34.112.639.095 1.023-.013.309.1.501.106.87s-.079.742.113 1.084c.198.352.279.73.214 1.133-.051.315.178.576.113.881-.07.33.212.608.099.917-.141.385-.23.826.055 1.086.242.22.295.502.227.827-.059.279.474.721.218.73-.229.007.104.361.263.466.187.123.17.254.201.443.053.323.171.653.415.871.194.173.068.391.228.665.154.263.26.507.321.767.099.422.071.887.035 1.323-.035.416.087.799.093 1.177s.283.74.203 1.114-.133.747.088 1.068c.174.251.078.537.2.792.157.33.195.666.201 1.04.003.219-.121.492.094.644.19.135.213.317.204.544-.012.319.023.641.291.842.231.173.038-.006.146.276.123.32.375.322.348.664-.016.212.164.501.221.637.091.22.298.411.286.669-.018.373-.056.747.207 1.048.138.157.226.242.194.456-.051.345.088.607.236.893.098.189.134.159.156.344.04.33-.045.547-.184.803-.113.208-.326.291-.422.397-.162.177-.486.284-.669.442-.282.244-.567.394-.878.615-.292.207-.553.461-.928.478-.299.013-.572.357-.863.377-.237.016-.325.232-.523.217-.224-.017-.656-.131-.594.1.056.212-.046.078-.219.205-.162.118-.463.291-.666.267-.313-.037-.514.207-.799.319l-1.238.493c-.352.172-.708.292-1.039.497-.315.195-.654.235-1.016.403-.276.128-.503.34-.766.389-.364.067-.776.195-1.117.416-.175.113-.374.284-.615.283-.272-.001-.494.058-.744.192-.325.174-.907-.032-1.007.285-.073.232-.483.181-.75.215l-1.221.106c-.43.022-.811-.127-1.212-.139-.55-.016-1.218.367-1.653.028-.297-.232-.808-.286-1.127-.105-.386.22-.809.38-1.212.23-.427-.159-.779-.192-1.156.059-.296.197-.675-.062-.967.093-.336.179-.716.125-1.091.122-.796-.007-1.743-.482-2.389-.018-.356.256-.715.169-1.152.237-.315.049-.59.067-.951.091-.415.028-.793-.012-1.208.101-.338.092-.3-.035-.635-.126-.386-.105-.711.027-1.044.11-.275.068-.576-.045-.833.096-.28.154-.774.03-.944.33-.149.263-.595.03-.643.211-.029.11-.207.177-.363.163-.346-.03-.605.075-.928.22l-1.033.413c-.219.099-.479.086-.693.198-.199.104-.419.247-.633.157-.326-.137-.291.036-.641.093-.321.053-.71-.06-.963.178-.285.269-.721-.041-1.032.138-.326.188-.729.125-1.088.094-.564-.049-1.283.38-1.693-.008-.277-.261-.636-.277-1.022-.221-.333.049-.611-.193-.936-.112-.435.108-.877.182-1.251-.073-.319-.217-.645-.322-1.025-.224-.391.1-.804.14-1.105-.095-.248-.194-.496-.234-.812-.19-.261.036-.532.134-.722-.085-.26-.299-.832-.149-.901-.482-.045-.221-.243-.223-.529-.342-.333-.139-.504-.506-.757-.754-.234-.229-.438-.466-.634-.748s-.305-.674-.545-.94c-.247-.275-.41-.568-.501-.94-.083-.341-.082-.617-.283-.946-.169-.277-.268-.546-.23-.864.036-.298-.203-.552-.095-.831.135-.346.181-.627-.064-.921-.276-.332-.21-.736-.234-1.177-.036-.679-.285-1.417-.005-2.039.16-.355-.195-.901.123-1.161.227-.185-.062-.601.082-.834.222-.359-.132-.838.092-1.163.235-.34.245-.689.247-1.091.001-.373.111-.7.09-1.096s-.058-.796.089-1.146c.154-.366-.188-.9.077-1.238.241-.306.35-.676.23-1.061-.125-.4-.033-.737.084-1.119.099-.322-.079-.684.188-.934.234-.22.23-.484.221-.817-.007-.298-.054-.616.108-.874.13-.207.272-.407.191-.635-.113-.319-.15-.547.062-.861.172-.255-.05-.625.141-.858.168-.205.261-.504.192-.785-.084-.346-.1-.641.108-.921.143-.194.246-.369.19-.614s-.067-.467.106-.649c.18-.189.225-.454.185-.738-.051-.359.236-.632.196-.965-.036-.3-.051-.528.092-.845.131-.292.279-.525.276-.839s-.101-.657.139-.872c.209-.185.226-.437.189-.734-.032-.259-.114-.515.088-.724.173-.178.276-.445.207-.689-.085-.3-.173-.601.09-.796.254-.188.216-.448.211-.761-.004-.289-.086-.64.109-.85.144-.155.462-.208.374-.567-.053-.216.222.058.208-.293-.012-.315-.203-.707.068-.93.299-.247.34-.547.238-.921-.079-.29.058-.519.084-.776.022-.218-.028-.412.094-.646.129-.247.222-.484.208-.738-.018-.306.367-.535.287-.846-.041-.161-.001-.045.096-.32.113-.322.296-.633.396-.969.095-.318.369-.593.38-.937.01-.351.027-.63.218-.943.167-.274.224-.634.347-.94.107-.268.31-.471.355-.79.032-.229-.202-.649.076-.71.193-.042.335-.269.312-.529-.031-.342.168-.628.293-.941.128-.323.11-.68.302-.94.197-.267.267-.627.375-.94.123-.359.326-.679.417-1.041.058-.23.408-.409.303-.643-.093-.207.056-.082.093-.347.042-.299-.136-.571.185-.569.2.001.28-.079.226-.266-.051-.174-.05-.457.106-.459.283-.003-.112-.168.109-.158.226.01.148.043.398-.127.195-.133.615-.076.659-.253.039-.154.235-.24.44-.162.399.152.546-.211.993-.197.743.025 1.491-.07 2.233-.061z" />
</svg>