<svg xmlns="http://www.w3.org/2000/svg" width="750.008" height="572" viewBox="0 0 198.44 151.342"><g fill="red"><path d="M45.081 87.093c-.125.015-.283.043-.34.17-.059.132-.002.28.043.407.055.157.13.31.15.48.01.09-.067.178-.164.127-.084-.044-.123.058-.123.127 0 .2.075.391.073.593-.002.1-.098.08-.176.065-.09-.016-.099.105-.101.168-.01.248.036.492.046.74.021.527.104 1.058.05 1.585-.01.108 0 .233-.07.32-.062.076-.18.11-.194.219-.032.237-.025.478-.023.716.005.476.052.95.037 1.426-.006.18-.067.368-.013.542.035.117.133.225.262.233.097.006.204.017.275.095.053.06.097.136.068.22-.03.08.04.144.101.184.063.04.143.112.097.19-.05.08.024.148.11.11.08-.035.15.028.206.076.221.188.384.43.597.628.373.348.778.666 1.108 1.056.06.071.143.137.164.23.016.064-.066.237.038.201a.228.228 0 01.253.057c.106.107.157.292.31.328.064.015.242-.064.2.04-.029.07-.05.175.066.183.165.01.337-.102.49-.038.219.091.387.264.588.388.12.074.262.029.39.006.102-.018.226-.024.302.067.051.062.095.146.19.152.386.024.774.024 1.162.021.37-.003.741-.03 1.112-.024.1.001.134-.108.195-.167.088-.088.226-.08.34-.07.21.02.419.09.632.056.09-.015.151-.086.192-.159.047-.085.14-.046.222-.055.102-.01.181-.094.249-.163.19-.198.358-.406.547-.613.07-.077.185.043.242-.024.06-.07.02-.17-.013-.24-.035-.077.016-.137.065-.205.046-.064.115-.066.145.033.012.04-.006.176.02.139.075-.103.14-.214.183-.333.05-.131-.075-.275.003-.4.052-.08.2-.103.196-.206-.003-.062-.05-.245.051-.186.07.042.175.033.167-.077-.006-.094-.083-.187-.045-.279.041-.1.164.034.217-.029.06-.07.023-.17-.013-.24-.034-.066-.002-.224.088-.16.077.055.142.005.141-.09 0-.11-.075-.236-.004-.332.058-.079.173-.105.199-.21.044-.176-.023-.353-.043-.528-.012-.107 0-.232.097-.3.066-.045.13-.1.152-.182.053-.2-.004-.406-.037-.604-.028-.172-.068-.36.013-.522.045-.091.194-.109.201-.211.02-.299.02-.598.02-.897 0-.53-.094-1.065-.015-1.588.014-.083-.05-.143-.114-.182a.301.301 0 01-.132-.214c-.041-.24.03-.479.065-.715.028-.181.062-.381-.025-.55-.05-.1-.196-.125-.211-.248-.03-.25-.024-.503-.022-.754.006-.588.574-2.005.039-1.762-.079.036-.124-.073-.16-.127a.638.638 0 01-.093-.362c.006-.276.103-.545.071-.823-.024-.208-.222-.35-.228-.562-.005-.165.08-.333.018-.495-.044-.113-.2-.135-.222-.262-.032-.173.072-.344.028-.516-.03-.118-.224-.133-.217-.252.004-.085.027-.167-.042-.246-.107-.123-.324-.169-.352-.336-.013-.082.04-.167-.038-.242-.055-.053-.164-.083-.162-.167.002-.069.063-.182-.043-.202-.12-.022-.24.084-.356.023-.105-.055-.326-.055-.311-.174.006-.047.116-.013.167-.023.115-.023.009-.137-.035-.185-.065-.072-.16.036-.236-.028-.074-.061-.108-.166-.208-.195-.184-.056-.375.007-.558.033-.14.02-.308.059-.423-.036-.077-.064-.113-.185-.227-.196-.118-.011-.244.078-.353.008-.081-.053-.103-.197-.206-.197-.08 0-.167.039-.235-.042-.055-.064-.1-.152-.195-.164-.214-.026-.431-.004-.648-.004-.077 0-.138.05-.181.111-.04.058-.1.145-.177.112-.096-.043-.183.022-.246.093-.092.103-.145.274-.287.302-.074.015-.146-.027-.224.015-.096.05-.297.051-.284.16.006.047.117.013.168.023.115.023.007.136-.035.185-.062.071-.166.037-.24.012a.272.272 0 00-.22.025c-.09.048-.28.05-.267.15.006.048.117.014.168.024.115.023.009.137-.035.185-.065.072-.157-.033-.237.028-.073.057-.102.203-.204.188-.077-.012-.152-.024-.224.029a2.98 2.98 0 00-.582.55c-.057.071-.163.135-.156.228.006.087.02.166-.037.251-.089.138-.202.293-.364.324-.07.014-.183-.069-.21.035-.033.12.082.242.024.357-.047.094-.212.113-.206.221.005.085.024.164-.035.247-.196.273-.486.438-.725.677-.07.07.013.167-.025.241-.05.1-.198.124-.21.246-.013.108.078.216.032.32-.043.1-.171-.04-.218.029-.05.073.044.159-.03.24-.058.063-.193.096-.176.19.015.084.03.173-.053.236a.594.594 0 00-.165.173c-.138.24-.244.497-.368.745zM66.075 89.47c-.151.06-.222.225-.238.377-.042.403.1.799.084 1.2-.005.109-.025.236-.128.293a.265.265 0 00-.136.248c.004.147.08.297.029.441-.037.104-.203.121-.208.232-.018.365-.018.73-.015 1.096.003.285-.084.589.015.856.04.107.201.127.212.248.016.17-.068.338-.035.507.023.118.157-.009.212.04.074.065.065.176.059.265-.015.218-.073.43-.071.65 0 .11.096.176.177.226.098.06-.017.177.035.243.058.073.214-.073.218.029.003.085-.037.166.036.25.107.123.329.168.352.336.012.082-.032.163.033.245.108.135.324.185.368.36.029.117-.078.233-.03.345.045.1.173-.04.22.029.049.073-.045.16.03.24.063.068.22.121.172.229-.042.096.022.184.094.246.118.101.236.197.323.343.05.083-.104.161-.012.222.082.054.174.09.262.134.082.04.154-.107.219-.007.04.063.109.125.106.2-.001.068-.064.187.045.2.108.014.227-.113.316-.044.056.043.181.13.125.185-.056.055-.201-.038-.215.032-.01.05.104.095.156.116.07.028.136.115.208.09a.23.23 0 01.248.065c.108.108.164.293.322.332.117.029.233-.078.345-.029.1.044-.04.172.028.218.073.05.163-.047.24.03.068.069.114.18.227.185.113.005.237-.078.34-.009.088.06.121.194.241.206.118.012.25-.085.354-.008.087.065.127.183.245.214.207.054.418-.009.623-.04.17-.027.37-.08.518.024.089.063.124.193.247.21.173.022.346-.086.515-.027.104.036.121.203.232.208.487.022.975.03 1.462.026.284-.001.568.003.851-.02.132-.01.15-.189.274-.22.183-.045.37.09.548.02.111-.044.135-.198.26-.222.179-.032.358.087.532.024.106-.039.123-.216.237-.212.062.003.245.05.186-.05-.042-.071-.033-.174.077-.168.096.006.2.096.289.041.084-.052-.015-.149.023-.222.056-.105.056-.326.174-.311.047.006.013.116.023.167.024.115.137.007.185-.035.07-.062-.033-.154.02-.226.097-.131.257-.196.381-.3.05-.041.15-.043.079.039a1.868 1.868 0 01-.373.31c-.09.06-.1-.044-.097-.115.006-.136.01-.276.06-.404.033-.083.126-.047.185-.01.088.053.17.152.281.14.11-.012.05-.125.06-.199.013-.079.086-.134.122-.201.022-.041.098-.091.081-.003-.025.134-.041.305-.157.378-.072.046-.029-.115-.02-.157.061-.285.196-.563.18-.859-.007-.115-.099-.231-.056-.34.04-.1.08-.004.082.07.001.033-.027.13-.026.046.003-.161-.058-.625.02-.484.014.023-.007.13-.048.17-.062.06-.216-.021-.183-.087.033-.067.034-.231-.072-.158-.079.054-.152-.014-.143-.105.01-.1.085-.211.021-.302-.062-.089-.193-.125-.209-.248-.022-.172.1-.351.026-.514-.105-.232-.36-.385-.412-.635-.03-.143.016-.288.033-.43.012-.102.039-.212-.003-.309-.046-.105-.196.053-.225-.037-.026-.077.025-.147-.017-.236-.039-.08-.117-.138-.147-.221-.038-.1-.024-.21-.027-.315-.003-.112.095-.302-.012-.338-.054-.018-.14-.003-.185-.069-.049-.07.027-.146-.017-.23-.11-.21-.334-.36-.392-.593-.045-.183.088-.37.02-.548-.045-.114-.209-.138-.222-.271-.012-.118.079-.245.008-.353-.057-.086-.19-.116-.203-.23-.012-.11.08-.217.033-.321-.043-.1-.165.034-.218-.028-.07-.085-.049-.206-.035-.306.027-.191.072-.38.08-.575.003-.087-.07-.149-.158-.105-.097.048-.117-.075-.114-.149.006-.142.078-.286.038-.424-.035-.12-.2-.142-.223-.271-.033-.178.092-.36.023-.532-.044-.108-.18-.135-.22-.248-.074-.201-.025-.419.008-.622.036-.216.079-.437.035-.657-.019-.094-.097-.152-.17-.204-.097-.068-.078-.197-.068-.298.017-.162.056-.322.046-.487-.006-.11-.111-.058-.189-.06-.092-.003-.077-.125-.06-.189.022-.084.06-.19-.013-.263-.069-.067-.18-.114-.185-.226-.005-.116.072-.238.004-.348-.143-.235-.436-.323-.576-.56a.205.205 0 01-.002-.216c.054-.087-.086-.135-.146-.163-.081-.039-.169-.136-.253-.1-.065.03.064.147.058.14-.102-.12-.224-.22-.321-.342-.104-.13-.101-.318-.22-.436-.05-.051-.123-.12-.198-.086-.103.047-.192-.041-.233-.125-.05-.104-.16-.03-.245-.055-.105-.033.035-.166-.03-.213-.079-.056-.183-.05-.273-.036-.037.006-.162.035-.134.036.154 0 .343.087.465-.01.058-.047-.078-.081-.118-.093-.129-.04-.257-.092-.391-.104-.178-.016-.358.085-.531.013-.103-.042-.125-.229-.242-.21a.344.344 0 01-.226-.025c-.08-.04-.126-.138-.212-.16-.083-.02-.17-.007-.256-.007-.15.002-.302.008-.452-.018a.337.337 0 00-.29.08c-.113.108-.161.314-.323.34-.08.014-.17-.043-.24.04-.06.068-.13.216-.234.152-.075-.046-.16.022-.108.101.05.08-.027.134-.108.102-.106-.041-.188.065-.245.137-.075.095-.13.232-.253.26-.065.016-.23-.068-.202.039.02.079.026.154-.03.229-.164.22-.342.44-.57.593-.07.048-.142.167-.226.132-.069-.03-.175-.038-.18.066-.006.114.076.226.023.34a.3.3 0 01-.25.179c-.095.004-.198.018-.266.094a.295.295 0 00-.082.24c.014.096.055.202-.005.293-.1.153-.34.195-.383.377-.015.064.062.248-.04.2-.076-.036-.182-.044-.182.08 0 .152.078.3.053.451-.02.122-.158-.006-.213.043-.072.063.032.155-.029.234-.058.077-.232.122-.186.23.04.093-.003.189-.092.236a.202.202 0 00-.105.234c.027.098-.07.166-.124.237l-.464.619zM75.78 129.277c.155.203.107.475.09.711-.013.163-.133.415.016.493.11.057.124.18.104.294-.023.128-.054.274.037.384.117.139-.049.343.044.472.063.089.131.163.116.302-.012.111-.103.286.01.342.16.08.056.268.063.401.006.122.157.153.127.308-.025.13.024.212.086.353.048.107-.091.28.035.336.152.065.033.19.142.33.102.131-.07.327.031.449.091.11-.025.305.09.37.139.08.145.248.094.38-.058.15.125.178.124.327 0 .152-.09.325.015.457.084.106.088.242.068.37a.512.512 0 00.058.372c.132.202-.137.501.03.654.088.08.132.177.13.309 0 .258-.19.57-.03.775.069.088.137.169.133.304-.01.246-.075.498-.016.739.04.157.112.305.097.476-.013.163-.156.414 0 .496.108.058.117.183.108.297-.01.13-.133.333-.012.397.121.063.123.206.117.33-.007.164-.124.372-.006.498.126.132.07.31.066.47-.003.129.177.165.116.318-.062.158.121.272.106.42-.016.161-.016.31.066.472.071.142-.037.311.085.449.1.114.061.255.135.394.053.101.007.263.108.312.124.059.11.195.083.308-.03.123.028.151.106.271.08.123.043.261.099.396.033.08.118.306.107.273-.016-.046-.046-.144.04-.07.12.105.005.237.131.363.065.065-.028.173.055.229.142.095.085.195.14.366.035.106.16.206.121.325-.055.172.2.196.2.346 0 .175.224.3.198.47-.022.151.238.238.196.372-.033.106.204.288.134.227-.136-.117-.018.141.064.169.147.049.206.134.189.283-.015.124.083.211.178.289.085.07.258.13.232.244-.03.124.089.306.193.273.145-.045.167.185.282.19.145.005.278.084.4.169.135.092.271.28.432.237.128-.033.17.176.32.102.13-.063.178.104.284.11.131.008.257-.047.386.048.166.122.392-.066.546.072.138.124.335-.02.48.05.095.046.148.125.28.13.647.023 1.294-.008 1.941-.023.436-.01.872-.047 1.307-.009.15.014.26.123.417.136.442.038.909-.195 1.323-.028.132.053.25.117.403.12.392.009.82.151 1.177-.013.088-.041.142-.157.27-.107.153.059.264-.09.405-.107.18-.022.388.096.538-.036.137-.12.343.048.472-.045.084-.06.152-.128.283-.12.168.008.343.061.508-.023a9.22 9.22 0 00.215-.112c-.066.022-.275.152-.092.111.126-.028.26-.061.346-.159.102-.114.276-.015.373-.108.113-.108.271-.045.395-.103.05-.023.189-.1.18-.09-.077.077.128.027.167.01.068-.03.273-.037.239-.094-.06-.1.173-.142.25-.154.13-.02.267-.044.36-.141.098-.104.248-.035.363-.112a.638.638 0 01.474-.09c.16.025.373.026.432-.118.07-.172.254-.052.38-.143.138-.099.314-.077.461-.032.124.037.17-.107.268-.124.107-.018.215.048.323-.054.118-.11.315.051.435-.034a.562.562 0 01.475-.088c.112.03.349-.14.324-.114-.076.078.129.03.167.01.148-.074.299-.15.472-.095.17.054.241-.096.37-.17.09-.053.13-.103.256-.13.111-.022.166-.144.313-.106.134.035.247-.018.33-.14.07-.1.178-.056.28-.15.198-.184.537-.31.564-.579.01-.097.055-.157.156-.237.095-.075.14-.126.146-.265.003-.081.063-.111.099-.198.022-.055-.02-.038.086-.107.09-.058.003-.152.1-.277.102-.131-.07-.327.031-.449.091-.11-.02-.298.09-.37.108-.072.13-.197.118-.328-.015-.156-.164-.407-.01-.479.144-.067.092-.227.096-.354.007-.23.1-.483.001-.694-.038-.082.006-.228-.108-.224-.054.001-.076.03-.098-.074-.042-.2-.251-.31-.344-.485-.044-.08-.108.033-.149-.11-.032-.11-.182-.12-.266-.178-.13-.091-.292.015-.41-.092-.101-.092-.3-.054-.344-.172-.048-.124-.14-.078-.242-.157-.082-.064-.042-.06-.226-.119-.122-.039-.256-.003-.382 0-.17.003-.343-.05-.51 0-.069.022-.216.105-.049.095.106-.008-.105.042-.131.064-.065.056-.243-.006-.222.061.057.181-.157.065-.269.108-.262.1-.39.354-.58.543-.08.08-.16-.034-.224.1-.026.054.04.098-.084.116-.122.017-.137.215-.271.206-.148-.009-.235.17-.366.2-.159.036-.323-.046-.48.032-.14.069-.279.219-.443.159-.15-.055-.259.118-.398.106a.43.43 0 00-.316.073c-.134.086-.373-.114-.44.026-.058.123-.189.096-.306.088-.142-.01-.32-.013-.386.112-.058.11-.186.12-.3.104-.144-.02-.302-.068-.44.02-.117.076-.218.14-.386.156-.102.008-.125.14-.262.111-.138-.03-.22.087-.38.095-.105.004-.146.084-.283.09-.08.002-.117.05-.198.098-.135.083-.367-.117-.437.031-.056.117-.195.098-.303.081-.102-.016-.244-.059-.314.046-.071.108-.22.068-.326.054-.112-.016-.288-.094-.345.017-.067.132-.234.104-.356.103-.435-.004-.87 0-1.303-.045-.14-.015-.168.137-.322.142-.37.014-.749-.12-1.111-.034-.108.025-.148.12-.288.124-.46.015-.922.013-1.383-.005-.125-.004-.163-.137-.319-.138-.211-.001-.518.22-.634.03-.071-.116-.204-.12-.332-.118-.265.003-.532.054-.796.03-.123-.01-.163-.139-.317-.14-.212-.001-.479.19-.635.03-.056-.057-.104-.067-.198-.098-.158-.053-.158-.227-.19-.367-.016-.078.015-.099-.134-.1-.14-.002-.098-.195-.079-.285.025-.114.049-.26-.074-.321-.156-.078-.102-.236-.194-.362-.083-.114.092-.332-.043-.375-.093-.03-.032-.203-.088-.176-.09.043-.023-.052-.089-.094-.106-.066-.109-.177-.097-.302.016-.163-.059-.321-.15-.447-.084-.117-.009-.265-.072-.38-.07-.127-.2-.232-.201-.392-.002-.158.163-.399.018-.474-.11-.057-.112-.18-.104-.295.008-.105.087-.27-.02-.324-.123-.062-.088-.22-.078-.332.01-.114.103-.297-.008-.35-.125-.06-.113-.214-.11-.33.004-.194.14-.426.022-.581a.569.569 0 01-.12-.353c.001-.305.092-.61.05-.914-.017-.123-.146-.165-.15-.314-.007-.237.03-.472.03-.71.001-.535-.013-1.07.001-1.603.006-.212.105-.455-.01-.639a.738.738 0 01-.121-.373c-.009-.32.194-.67.04-.956-.05-.093-.125-.147-.127-.284-.003-.267.176-.572.032-.8-.065-.101-.146-.181-.146-.33-.001-.258.14-.53.04-.771-.056-.136-.13-.262-.127-.42.003-.25.162-.526.039-.748-.055-.099-.141-.16-.134-.301.01-.19.017-.381.018-.573 0-.462-.028-.925 0-1.386.008-.114.057-.28-.065-.34-.11-.054-.119-.168-.154-.294-.037-.136-.185-.184-.301-.239-.123-.058-.051-.164-.18-.254-.11-.078-.248-.022-.367-.116-.084-.067-.157-.144-.29-.103-.14.043-.28-.049-.347-.154-.073-.113-.315.033-.284-.07.054-.175-.186-.076-.281-.079-.26-.009-.55-.125-.783-.003-.113.06-.258.04-.344.123-.083.08-.135.184-.293.178-.125-.004-.436.005-.36.102.01.013.15-.074.083.046-.052.095-.111-.009-.187.129-.032.057-.137-.005-.183.092-.049.102-.159.081-.242.14a1.64 1.64 0 00-.374.384c-.073.1-.017.285-.12.324-.13.05-.179.428-.176.296.001-.055.015-.177-.02-.059-.039.125-.044.244-.07.382-.02.106-.164.147-.118.29.042.13-.025.218-.09.351-.088.181.052.362.174.489.07.072.15.135.222.205z"/><path d="M99.052 122.643l-.249.123c-.136.068-.211.245-.377.16-.128-.064-.003.15-.115.116-.16-.05-.217.22-.349.293-.149.083-.307.052-.412.19-.07.096-.214.17-.182.306.047.196-.286.276-.42.421-.084.092-.162.2-.292.182-.14-.018-.034.13-.093.21-.093.127-.324.184-.284.374.03.145-.09.197-.107.313-.024.154-.04.262-.213.29-.062.01-.172.249-.058.176.018-.01-.165.105-.123.186.08.15-.148.184-.093.323.065.164-.074.126-.107.213-.047.128-.089.176-.092.282-.004.127-.131.18-.07.291.063.119-.089.091-.14.124-.113.075-.004.25-.1.345-.105.104-.072.226-.094.344-.017.092-.091.113-.099.198-.01.107-.22.122-.197.257.02.114.041.248-.082.308-.112.053-.075.193-.17.255-.117.075.039.28-.127.339-.055.02-.03.265-.12.196-.056-.042-.077.19-.093.27-.02.108.055.254-.068.317-.14.073-.132.217-.138.333-.008.153-.043.203-.095.29-.07.117-.115.086-.092.16.05.162-.149.185-.09.32.066.157-.088.123-.117.23-.037.133-.224.22-.187.374.042.176-.174.185-.205.32-.027.114.007.21-.092.274-.125.08-.162.161-.099.297.066.143-.13.248-.187.375-.058.132-.12.25-.112.392.01.142-.084.16-.103.256-.075.386-.023.786-.015 1.178.002.128-.025.29.112.359.142.07-.021.3-.004.451.018.166.176.305.101.484-.059.142.079.206.122.31.053.126-.104.326.05.414.127.072-.026.243.045.35.09.134.05.21.11.312.058.1.227.141.183.284-.042.133-.048.302.094.38.264.145.354.494.607.664.101.068.204.136.284.227.09.101.154.109.263.127.113.02-.047-.123.042-.021.096.11.217.05.275.182.06.135.184.15.32.139.152-.014.034.028.09.068.058.04.27.045.172.123-.092.074.235.097.356.07.15-.032.205.073.308.117.138.06.33-.087.45.05.043.05.03.033.096.037.166.013.267.132.401.197.127.063.283.006.425.006.125 0 .287.044.352-.097.075-.161.342.045.51-.007.113-.035.175-.134.292-.122.223.023.446.025.67.04.126.009.257-.004.326-.116.1-.166.382.017.573.024.15.006.248-.05.344-.13.28-.233.728-.004 1.091.004.067 0 .358.03.224-.019-.135-.049.27-.11.41-.098.205.018.437.093.626-.026.129-.082.274-.062.411-.043.167.023.282-.09.43-.115.13-.022.324.091.406-.057.061-.11.231-.025.341-.02.144.005.224-.052.317-.12.137-.099.28-.07.424-.1.108-.021.258.062.317-.07.064-.143.303-.108.445-.192.12-.071.251.006.374-.028.14-.037.272-.15.419-.125.134.023.076-.033.127-.048.136-.04.25.054.36-.033.13-.102.222-.054.334-.11.134-.067.269-.04.345-.178.065-.12.264-.005.363-.113.12-.133.275-.034.4-.122.114-.08.014-.078-.063-.053-.115.037.24-.117.365-.104.169.019.27-.2.399-.306.11-.092.244-.214.396-.185.124.022.097-.273.268-.28.291-.014.422-.394.584-.628.154-.223.369-.378.556-.565a.692.692 0 00.207-.431c.009-.145.043-.21.164-.271.14-.07.086-.189.168-.264.104-.095.194-.18.149-.318-.03-.093.16-.141.105-.265a.297.297 0 01.103-.367c.152-.113.017-.377.01-.564-.005-.19-.021-.38.005-.57.017-.12.008-.26-.112-.322-.17-.088.087-.384-.033-.552-.092-.127-.225-.257-.17-.43.082-.249-.219-.47-.3-.717-.056-.171-.148-.178-.198-.297-.056-.135-.156-.157-.093-.287.037-.075-.182-.03-.235-.121-.068-.116-.154-.247-.29-.29-.18-.056-.224-.228-.372-.292-.068-.03-.14.003-.096-.087.073-.152-.242-.211-.375-.294-.406-.25-.654-.679-.982-1.016a2.532 2.532 0 00-.698-.496c-.146-.073-.309-.14-.41-.275-.095-.126-.223-.062-.285-.186-.075-.15-.288-.172-.43-.261-.106-.068-.165-.195-.304-.167-.113.023-.137-.234-.282-.189-.09.028-.12-.115-.213-.109-.13.009-.169-.067-.258-.124-.13-.084-.256-.053-.388-.054-.154-.002-.212-.203-.31-.309-.102-.11-.23-.048-.289-.175-.046-.1-.223-.055-.31-.146-.09-.095-.235-.01-.247-.144-.01-.122-.126-.016-.17-.01-.121.016-.083-.07-.102-.123-.052-.137-.164-.154-.296-.124-.14.032-.018-.01-.076-.053-.076-.056-.188-.042-.234-.143-.05-.107-.167-.017-.188-.103-.064-.258.024-.528.023-.792 0-.116-.078-.038-.117-.076-.1-.095-.104-.215-.174-.306-.08-.103-.193-.202-.33-.189-.141.014-.199-.103-.313-.079-.136.03-.225-.14-.344-.197-.147-.07-.314.07-.444-.033-.139-.11-.26.006-.335-.136-.057-.106-.163-.184-.283-.134-.152.061-.265-.103-.386-.17-.13-.071-.256.03-.37-.043-.146-.093-.232-.03-.321-.124-.113-.12-.246-.008-.358-.065-.161-.082-.162-.127-.251-.07-.095.06-.309.147-.343-.029zm.89 5.843c.066.165.04.412.199.494.042.022.089-.015.14.028.097.078.128.276.256.27.059-.004.11 0 .162.046.193.17.37.355.547.541.05.054.05.113.08.193.037.106.194.122.21.237.008.052-.037.103.031.147.068.043.147.011.221.018.077.006.134.066.19.111.08.065.14.198.242.191.062-.004.118 0 .17.054.078.078.112.256.226.243a.334.334 0 01.18.042c.025.011.119.082.047.058-.054-.019-.088.012-.053.073.051.09.153-.011.222.025.127.069.153.314.297.298.063-.008.125-.004.16.063.038.076.116.011.177.062.094.078.206.15.254.264.016.039-.036.132.05.108.086-.023.15.067.2.124.055.065.12.124.168.195.062.094.159.174.184.284.017.072-.013.136.012.217.024.08.104.069.158.125.054.058.01.125.055.195.038.06.102.056.154.122.042.053-.013.12.06.162.057.033.066.1.06.158-.006.065.045.218-.019.204-.04-.01-.114-.031-.088.043.032.094-.094.054-.141.039-.062-.021-.034.041-.05.088-.024.063-.118.035-.174.033-.076-.003-.197-.08-.23-.012-.02.043.007.087-.029.144-.039.06-.113.027-.168.055-.052.025-.068.122-.135.102-.09-.026-.162.048-.236.085-.055.028-.112-.017-.16.052-.055.078.123.05.097.068a.63.63 0 01-.172.093c-.059.018-.237-.06-.19.032.047.095-.082.073-.14.069-.058-.005-.142-.043-.181.015-.033.049-.076.093-.139.1-.069.01.008-.139-.065-.076-.06.05-.202.091-.17.163.024.055.007.118-.066.115-.087-.004-.171-.047-.26-.017-.056.019-.157.026-.158.092 0 .057.006.115-.047.161-.052.045-.111.039-.184.023-.066-.015-.1.053-.143.09a.307.307 0 01-.163.082c-.052.004.026-.058.048-.071.03-.019.07-.075.009-.046-.062.03-.115.07-.175.11-.055.039-.045.122-.106.15-.08.039-.181-.062-.249 0-.042.04-.073.117-.145.094-.067-.02-.078.102-.138.096-.062-.008-.127-.005-.159.064-.035.077-.129-.004-.17.063-.031.049-.096.123-.148.08-.05-.043-.134-.026-.16.033-.033.07-.115.074-.18.052-.072-.025-.106.05-.151.089-.057.048-.136.023-.2.01-.054-.01-.128-.015-.157.04a.179.179 0 01-.146.088c-.186.018-.365-.058-.553-.043-.063.006-.085.072-.133.103-.057.036-.133.02-.2.02-.17 0-.363.078-.514-.004-.052-.029-.068-.105-.137-.109-.11-.006-.216.039-.326.026-.086-.01.025-.145-.074-.13-.067.008-.162.054-.2-.028-.028-.058-.091-.062-.152-.059-.065.005-.175.068-.2.004-.016-.038.035-.129-.043-.114-.07.013-.14.032-.208-.017-.063-.045-.173-.104-.149-.178.014-.04.026-.11-.046-.087-.093.03-.06-.103-.054-.155.006-.058.037-.141-.024-.175a.185.185 0 01-.094-.15c-.02-.234.058-.464.049-.697-.003-.064-.022-.133-.082-.165-.06-.032-.055-.104-.057-.162-.003-.122-.054-.263.01-.368.026-.044.107.035.12-.041.019-.117-.046-.232-.023-.347.012-.065.139-.08.11-.14-.037-.077.043-.12.087-.167.021-.022.06-.062.02-.016-.034.039-.047.01-.038-.034.013-.066.08-.09.115-.141.032-.047-.01-.097.044-.149l.095-.087c-.022.033-.073.053-.059-.01.014-.065.07-.098.112-.143.064-.067-.037-.17.025-.234.04-.041.123-.075.093-.147-.019-.046-.039-.176.046-.135.068.033.029-.05.046-.088.032-.071.086-.132.131-.196.04-.059.095-.122.072-.199-.022-.074.01-.145.038-.213.04-.093.057.066.136.023.066-.036-.016-.125.065-.163.059-.028.063-.091.059-.152-.005-.065-.071-.183-.003-.2.049-.012.091-.008.15-.027.049-.016.044-.042.034-.098-.013-.077.064-.126.113-.172.043-.04.133-.084.105-.148-.031-.072.067-.086.089-.141.017-.047-.016-.09.038-.138.067-.06.024.11.065.09.047-.024.065-.1.094-.148.044-.073-.041-.162.019-.23.073-.084.194-.095.282-.16.046-.035.128-.084.104-.139-.036-.084.05-.143.118-.171a.724.724 0 00.27-.193c.04-.045-.037-.111-.003-.14.049-.04.115-.096.18-.072.068.026.146.012.194-.048.05-.061.023-.141.075-.208.053-.07.133-.026.202-.06l.346-.173zM46.307 43.872c.187-.046.46.024.56-.14.181-.295.432-.374.768-.292.378.093.667.044 1.007-.254.2-.175.374-.277.627-.378.193-.077-.328-.246.01-.207.169.02.342-.046.432-.177.106-.154-.351-.174.003-.184.288-.01.185-.211.375-.468.185-.25.122.314.232-.046.086-.282.482-.499.344-.752-.18-.33.028-.371.013-.836-.01-.293-.434-.484-.453-.674-.013-.133-.05-.396-.167-.363-.187.054-.241-.107-.328-.333-.105-.272-.4-.496-.34-.778.036-.176-.034-.468-.172-.43-.273.078.006-.267-.24-.398-.148-.08.178.067-.009-.152-.18-.212-.516-.308-.521-.64-.006-.383-.618-.338-.684-.68-.048-.254-.376-.262-.516-.527-.166-.313-.46-.305-.727-.552-.263-.243-.248-.6-.615-.791-.33-.173-.578-.367-.578-.731 0-.206.09-.439-.14-.56-.162-.086-.267.052-.434-.334-.126-.29-.196-.612-.58-.621-.435-.01-.592-.43-.947-.586-.098-.043.063-.088-.096-.166-.266-.13-.35-.442-.684-.495-.385-.061-.98-.364-.9-.74.05-.234-.326-.137-.399-.443-.036-.156-.184.136-.315-.17-.115-.266-.422-.387-.412-.68.01-.31-.252-.46-.454-.72-.217-.28-.805-.454-.806-.714 0-.347-.34-.494-.59-.497-.173-.002-.607-.073-.525-.416.074-.315-.181-.122-.451-.321-.181-.134-.378-.151-.465-.446-.075-.255-.48-.557-.504-.38-.03.21-.396-.312-.537-.404-.265-.172-.497-.462-.774-.55-.279-.088-.482-.272-.718-.483-.366-.329-1.156-.58-1.033-1.057.054-.208-.18-.358-.347-.292-.396.155-.306-.121-.633-.269-.282-.127-.377-.698-.713-.561-.19.077-.156-.12-.298-.15-.206-.044-.858-.248-.617-.255.312-.009.024-.124-.141-.184-.14-.05.168.078-.139-.119-.253-.162-.458-.328-.76-.515-.084-.051.105-.087-.084-.274-.208-.206-.652-.268-.652-.527 0-.179-.076.116-.251-.128-.157-.22-.291-.332-.513-.642-.176-.246-.25-.213-.618-.464-.184-.126-.287-.468-.536-.382-.227.08-.157-.362-.308-.297-.344.148-.66-.012-.748-.313-.06-.208-.175-.267-.388-.398-.242-.148-.265-.482-.426-.624-.066-.058-.019.159-.19 0-.284-.264-.593-.52-.71-.85-.124-.344-.205-.666-.534-.942-.255-.214-.576-.335-.579-.718a.907.907 0 00-.497-.819c-.395-.214-.76-.413-.763-.861-.003-.36-.203-.614-.498-.82-.26-.18-.181-.476-.4-.75-.187-.234-.486-.338-.734-.595-.227-.236-.359-.522-.56-.78-.2-.26-.452-.294-.734-.536-.173-.148-.266-.464-.4-.504-.26-.077-.336-.654-.623-.666-.276-.012-.357-.505-.632-.538-.257-.032-.298-.575-.53-.482-.194.078-.196.208-.327-.112-.095-.228-.43-.388-.708-.49-.261-.096-.072-.223-.442-.36-.403-.147-.897-.247-1.094-.687-.08-.18-.63-.059-.592-.425.031-.308-.174-.39-.448-.297-.216.074-.12-.006-.309-.094-.15-.07-.427-.084-.4-.217.06-.3-.109-.42-.439-.266-.366.17-.606.08-.812-.263-.109-.18-.11-.331-.31-.291-.248.049-.465-.048-.572-.296-.137-.32-.742-.185-.659-.534.057-.24-.247-.163-.403-.403-.147-.227-.31-.141-.577-.297-.2-.117-.125-.261-.493-.408-.228-.091-.694.02-.628-.292.047-.22-.239-.335-.445-.317-.252.02.315.075.04.041-.238-.03-.109-.018-.271.244-.211.342-.045-.323-.028-.15.024.234-.18-.024-.244.298-.028.14-.222.073-.181.195.059.178-.131.268-.305.255-.25-.018-.397.116-.599.312-.096.093-.155.047-.348.242-.132.135-.475.153-.429.312.054.187-.093.303-.334.328-.345.036-.546.318-.818.521-.11.083.065.008-.1.05-.265.068-.53.118-.64.38-.081.195-.224.318-.235.58-.014.291-.385.126-.256.48.155.425-.426.646-.26 1.109.116.323-.256.448-.125.816.1.282-.31.09-.177.39.16.359-.093.5-.11.919-.01.217.053.393-.157.557-.3.235-.192.682-.172 1.015.027.437-.118.89 0 1.312.08.292.226.516.193.882-.068.75.608 1.84-.021 2.253-.334.218-.265.498-.3.906-.064.75.617 1.768.04 2.249-.333.277.133.817-.128 1.08-.257.258-.025.616-.14.945-.084.239-.01.416-.151.712-.113.237-.09.447-.139.762-.046.298-.226.515-.196.886.034.428.097.864.007 1.282-.053.244.187.013.176.347-.026.816.52 1.829-.009 2.454-.299.354.185.94-.125 1.205-.36.307.143.884-.118 1.194-.234.279-.21.638-.188 1.007.024.408-.019.787-.129 1.216-.148.577.319 1.265-.028 1.753-.254.357-.16.82-.101 1.22.056.378-.157.69-.17 1.059-.034.93-.14 1.87-.005 2.793.055.375.136.734.164 1.157.026.384.303.746.152 1.114-.166.407.086.6.106 1.06.013.29.334.49.177.83-.195.42.07.65.163 1.057.092.4-.12.594-.192 1.017-.04.235-.088.452-.125.804-.036.334-.035.71.035 1.05.084.41-.192.75-.208 1.136-.028.706.218 1.444-.006 2.117-.144.438.177.698.213 1.1.036.401-.323.979-.006 1.217.354.265-.225.905.11 1.082.392.207.097.56.25.942.137.342.12.658.18 1.072.052.35-.065.678.13 1.067.149.296.012.576.109.942.086.327.227.758.037 1.047-.186.284-.131.654-.158 1.016-.025.325.295.612.162.88-.151.306-.125.546.13.736.293.218.53.551.439.901-.077.292.129.464.155.745.035.373.213.666.13 1.09-.074.384.205.708.14 1.078-.065.37.272.69.132 1.045-.14.357.268.532.114.94-.138.368.159.523.146.943-.012.37-.068.708.115 1.08.137.281.279.56.164.919-.111.346.037.546.177.854.139.304.136.62.39.838.316.273.4.583.291.978-.103.375.106.56.25.987.043.124-.05.066.15.276.227.24.15.598.142.925-.004.213.125.304.157.575.027.22.135.372.12.685-.013.289.253.307.29.686.023.244.213.197.243.352.041.21.247.342.189.555-.07.256.061.414.19.636.163.282.343.554.358.837.012.225-.117.476.13.65.15.106.291.117.29.33-.001.225.13.329.122.64-.005.264-.04.444.148.712.24.341.365.694.296 1.099-.05.29.049.423.125.785.046.22.06.356.14.639.1.347.036.72.316.927.284.21.13.544.254.87.104.274.103.541.296.825.208.306.504.542.393.994-.064.263-.088.458.151.632.297.217.234.526.3.906.028.165-.17-.098-.016.15.134.216.035.485.276.625.185.107.35.095.298.307-.08.325-.263.976.103.926.325-.044.184.138.38.457.12.195.246.355.223.626-.026.3.23.526.128.832-.102.305.054.848.3.782.269-.072.33.14.249.411-.106.35.144.56.35.77.216.221.34.466.214.805-.07.19.098-.017.128.316.017.19.026.07.102.238.06.134-.084.052.217.181.245.105.22.224.332.56.06.178.073.553.229.5.177-.059.266.131.254.305-.022.327.477.38.555.666.078.287.19.621.497.793.356.2.653.542.623.888-.038.443.706.486.706.874 0 .243.113.47.332.598.27.159.563.308.503.629-.034.178.028.456.17.429.19-.035.218.24.364.436.208.277.388.637.726.535.29-.088.825-.132.7.14-.159.347.65.292.49.28-.156-.012.239.166.35.28.133.135.498.16.43.311-.089.196-.097.339.13.25.164-.065.478.371.446.01-.026-.284-.29-.516-.174-.78.129-.29-.224-.148-.149-.525.056-.278-.273-.416-.16-.616.102-.18-.107-.752-.109-.68-.007.316-.083-.22-.118-.393-.03-.15-.06-.416-.187-.387-.268.062-.027-.304-.249-.48-.174-.14-.288-.162-.29-.38a.917.917 0 00-.27-.671c-.202-.192-.136-.553-.379-.67-.311-.15-.407-.302-.435-.69-.026-.369-.205-.603-.336-.97-.05-.14.128.13-.119-.137-.218-.238-.317-.466-.38-.836-.042-.253.08-.496-.155-.71-.276-.25-.526-.602-.448-.956.062-.285-.041-.415-.108-.783-.053-.296.057-.825-.284-.803-.357.024-.308-.25-.297-.587.007-.234-.254-.387-.15-.611.15-.327.182-.712-.13-.79-.282-.07-.23-.104-.28-.42-.044-.276-.229-.459-.164-.775.075-.371.178-.85-.116-1.045-.329-.22-.382-.521-.292-.908.084-.36.055-.793-.295-.953-.234-.107-.29-.246-.253-.52.042-.317.076-.707-.17-.879-.257-.178-.341-.41-.262-.729.067-.273.138-.499-.115-.727-.225-.204-.376-.335-.407-.705-.016-.204-.235-.329-.179-.528.079-.28-.022-.46-.184-.74-.126-.219-.049-.478-.254-.632-.354-.265.155-.812-.11-1.082-.274-.279.001-.74-.28-.98-.237-.203-.274-.438-.388-.782-.09-.273-.082-.608-.236-.833-.113-.165-.258-.32-.24-.56.023-.315-.255-.57-.132-.863.144-.345-.02-.49-.114-.884-.067-.284.093-.65-.15-.84-.376-.29.18-.947-.127-1.206-.217-.181-.344-.366-.303-.647.029-.193-.198-.204-.146-.418.101-.418.276-.938-.106-1.17-.307-.186-.347-.422-.3-.76.05-.34-.218-.532-.133-.947.073-.362.172-.797-.146-1.013-.329-.224-.362-.51-.303-.917.046-.316-.215-.55-.135-.86.101-.39.255-.865-.103-1.104-.359-.239-.027-.669-.23-.97-.2-.3-.062-.722-.05-1.073.006-.186-.276-.069-.18-.36.076-.233-.147-.28-.149-.514-.003-.308-.138-.512-.134-.86.003-.3-.18-.508-.14-.84.039-.314-.104-.525-.144-.856-.035-.288-.098-.534-.107-.896-.017-.622.634-1.816.005-1.914-.341-.054.101-.712-.15-.88-.368-.244-.173-.617-.253-1.048-.065-.351-.168-.623-.188-1.01-.017-.317-.107-.555-.132-.926-.061-.924.634-2.07.036-2.775-.28-.33-.015-.795-.14-1.198-.114-.365-.007-.715-.128-1.113a4.396 4.396 0 01-.186-.841c-.04-.344.28-.619.176-.914-.106-.303.118-.518.132-.796.039-.818.549-1.849 0-2.455-.242-.267-.208-.655-.188-1.01.057-1.006.043-2.015.03-3.022-.015-1.27.833-2.84.013-3.81-.235-.279-.19-.673-.179-1.042.016-.568.461-1.337.026-1.707-.302-.256-.18-.724-.176-1.083.004-.385-.19-.843.036-1.157.276-.386.167-.874.142-1.313-.022-.404.09-.774.138-1.208.03-.274.155-.438.158-.758.003-.414.124-.746.159-1.184.031-.4.062-.719.117-1.188.056-.476-.016-.959-.05-1.435-.015-.203.256-.274.191-.507-.112-.406.158-.713.16-1.13.007-.757-.595-1.742-.053-2.269.276-.27.229-.69.153-1.043-.076-.352.143-.63.17-.967.03-.39-.287-.912.006-1.18.268-.248.131-.693.127-1.025-.007-.753-.602-1.772-.028-2.26.313-.267.307-.64.288-1.039-.016-.337.072-.57.257-.91.087-.162.051-.679.04-.584-.035.317.026-.17.295-.184.253-.014.398.287.593.176.198-.111.13.185.246.138.197-.079.134.202.28.14.198-.083.147.196.282.135.225-.1-.28-.113.106-.003.194.056.237.407.351.416.299.024.264.317.588.464.206.093-.034-.01-.025.123.013.174.55.2.39.25-.306.095.106.207.241.279.238.126.323.58.487.565.361-.033.302.282.536.449.283.2.312.711.612.758.391.061.693.973.73.67.05-.392.12.24.226.219.142-.03.039-.018.21.14.268.247.393.89.73.851.33-.038.375.558.67.55.441-.014.422.78.794.81.323.027.85.29.747.59-.107.31.71.628.396.7-.18.042.322.221.317.316-.015.319.276.435.267.804-.004.199.04.403.205.506.266.167.286.45.403.709.093.206.012-.098.124-.025.138.091.1.143.216.396.064.142.079.42.204.384.187-.054.207.124.328.334.082.14.246.08.212.247-.048.233.095.611.3.54.196-.07.069.182.374.276.265.082.097.211.435.414.33.199.372.86.73.852.356-.01.543.41.74.66.26.329.662.337.958.623.216.21.43.306.59.587.154.27.319.613.624.5.229-.086.068.296.35.14.325-.182.085.278.473.243.26-.023.144.499.5.33.388-.184.55.248.847.337.274.081.601.177.829.382.29.26.464.48.863.63.182.067.29.21.513.184.343-.04.427.216.666.554.174.245.295.422.66.394.268-.021.646.102.612.336-.06.41.443.344.623.593.24.333.746.332.929.645.19.328.348.646.758.654.323.006.39.483.68.547.268.06.438.368.63.627.17.227.482.107.729.386.212.24.406.484.57.77.173.3.375.534.672.79.243.21.582.252.846.534.177.19.258.342.554.586.28.23.752.481.7.84-.043.298.134.367.318.62.191.263.583.302.74.561.148.245.675.168.634.39-.06.322.546.198.564.415.022.268.352.668.615.675.227.006.636.445.517.44-.237-.01.231.321.26.434.072.292.239.582.274.947.023.244.235.194.243.352.008.143.273.379.204.368-.24-.039.017.257.113.4.24.358-.063 1.218.42 1.12.232-.047.145.34.42.42.297.087.394.178.461.447.07.28.698.355.56.394-.308.087.213.185.31.222.181.07-.264.22.057.086.15-.062.745-.013.573.112-.142.103-.439-.088-.13-.018.232.052.465-.082.69-.122zM76.572 54.515c.117-.337-.54-.422-.41-.668.093-.174.006-.175-.184-.224-.143-.036-.265-.034-.198-.198.069-.168-.204-.034-.099-.24.048-.095-.198-.277-.1-.143.033.044.094.181.07-.02-.02-.158-.028-.03-.137-.148-.066-.072-.066-.005-.124-.191-.036-.114.075-.339-.093-.327-.154.01-.169-.072-.21-.218-.057-.198.115-.373.096-.547-.01-.096.031 0 .102-.146.053-.11-.059-.036.12-.049.124-.009.17-.394.177-.276.01.183.07-.088.12-.078.174.033.264-.088.402-.212.115-.103.212-.172.369-.276.24-.16.349-.426.651-.467.25-.035.438-.215.603-.416.107-.13.232-.273.378-.214.227.092.333-.06.489-.213.138-.136.374-.057.48-.196.116-.15.293-.183.493-.18.136.004.234.02.372-.096.156-.131.425-.044.523-.217.089-.155.2-.192.391-.185.21.007.378-.137.52-.244.183-.136.295-.209.616-.226.114-.006.537-.116.475-.123-.223-.025.248.016.314-.084.11-.168.229-.2.428-.208.224-.009.482.061.645-.097.143-.14.458.077.544-.101.087-.18.203-.25.396-.198.203.055.18-.15.344-.107.267.07.505.061.709-.183.133-.159.557-.009.548-.193-.01-.202.3-.117.478-.21.206-.107.475-.076.573-.268.149-.295.425-.08.713-.264.166-.105.353-.232.546-.165.184.063.274.03.446-.095a1.09 1.09 0 01.753-.208c.228.013.413-.084.662-.097a3.13 3.13 0 00.664-.091c.304-.077.763.26.92-.02.135-.24.45.043.616-.127.206-.21.612.149.77-.07.156-.217.38-.203.665-.18.222.019.53.072.622-.12.077-.163.178-.227.368-.176.28.074.527.01.717-.21.206-.24 1.042-.337.757-.286-.088.015-.184-.012-.027-.079.209-.089.522-.086.633-.316.102-.213.575-.027.502-.206-.079-.195.008-.156.212-.198.207-.043.52.016.672-.19.122-.167.28-.376.495-.298.202.074.25-.282.388-.213.21.103.394.108.503-.084.1-.172.223-.193.42-.202.242-.012.52-.003.693-.205.207-.242.466-.189.728-.362.137-.091.236-.207.437-.122.278.119.468.068.594-.198.086-.182.201-.146.396-.198a2.42 2.42 0 01.616-.099c.145-.004.202-.084.394-.108.29-.036.878.3.872.009-.006-.23.386-.105.557-.093.275.019.414-.12.74-.198.164-.039.266-.07.49-.097.171-.02.53.066.49-.107-.052-.222.164-.157.346-.176.217-.024.35-.222.603-.198.227.022.377-.292.584-.229.252.077.47.015.646-.19.137-.16.345-.093.534-.258.164-.143.297-.17.555-.138.232.03.47.025.645-.121a.76.76 0 01.685-.189c.187.032.307-.156.495-.1.324.1.728.218.905-.071.131-.214.315-.099.538-.212.209-.106.397-.054.665-.079.205-.019.383-.123.604-.136.257-.014.465-.153.754-.094.193.039.31-.108.506-.103.203.005.357-.193.573-.092.25.117.345-.109.616-.08.192.02.289-.17.524-.102.247.07.378-.23.656-.116.214.089.358-.091.544-.105.298-.022.713.258.895.016.148-.194.431-.11.649-.11.312 0 .698-.19.936.012.25.211.605-.061.852.088.211.129.454.143.702.126.255-.017.513-.044.772.06.234.094.498.063.737.015.33-.066.618.122.938.133.366.012.732-.027 1.1-.026.823.003 1.65-.055 2.469.028.228.023.397-.128.618-.146.412-.033.822.013 1.236.007.423-.006 1.035-.34 1.27.012.155.23.41.333.644.204.146-.08.097.132.172.105.27-.094.427.085.685.16.114.033.337.056.29.146-.048.092-.048-.036.1.126.216.237-.193.83.09.843.253.012.036.434.11.627.035.09-.102-.062.094.128.174.168.106.443.106.664-.001.32.042.644-.012.958-.023.131-.06.013-.156.07-.166.097-.108.195-.141.425-.027.186-.075.302-.11.525-.05.318.298.818.012.96-.14.069-.149.43-.088.604.083.24-.14.392-.14.6 0 .249-.132.451-.08.725.057.29.032.584-.188.745-.177.13-.127.316-.258.534-.116.192-.239.367-.146.603.07.182.066.304-.091.447-.23.21-.19.482-.286.75-.04.113.05-.214-.073-.028-.058.088-.14.418-.137.306.007-.222-.066.157-.12.187-.161.09 0 .243-.275.37-.244.111-.196.369-.44.513-.16.094-.217.131-.155.378.073.281-.064.472-.211.718-.112.185-.066.433-.284.569-.18.113-.269.294-.198.495.074.21.04.325-.099.495-.14.171-.293.35-.206.543.075.165-.11.203-.14.268-.097.214-.212.387-.155.624.063.261-.1.41-.203.677-.034.09.075-.087-.094.128-.157.2-.049.557-.239.71a.637.637 0 00-.248.566c.015.182-.147.255-.174.397-.029.149-.19.247-.133.393.072.182.08.324-.09.447-.177.126-.066.354-.25.515-.085.074.014.276-.17.355-.146.063-.135.537-.175.331-.033-.177-.052.23-.092.347-.075.22-.104.293-.304.532-.148.176-.098.381-.198.594-.098.207-.23.394-.392.57-.165.18-.276.399-.353.666-.067.234-.265.46-.344.694-.038.113.021.24-.1.347-.12.105-.179.22-.247.347-.084.155.031.592-.148.544-.212-.056-.199.005-.206.22-.006.19-.133.38-.24.523-.056.075-.24.273-.168.261.17-.027.022.217-.08.283-.18.118-.09.303-.234.494-.116.154-.188.317-.164.521.015.12-.015.23-.118.3-.147.098-.233.216-.188.403.039.163-.128.256-.097.409.058.29-.005.542-.189.745-.202.223-.229.44-.214.747.01.207-.112.342-.095.58.013.185-.163.308-.1.498.109.331-.187.592-.082.927.071.227-.11.391-.117.597-.022.637.014 1.274.014 1.912.001 1.085.037 2.17.02 3.256-.003.23.167.556-.02.692-.217.158-.087.462-.095.687-.006.163-.11.296-.11.52.001.575.439 1.336.017 1.73-.223.208-.163.554-.109.826.036.18-.147.175-.211.316-.038.084.117.188-.044.246-.133.05-.011.054-.14.23-.122.165-.293.21-.446.297-.123.07-.323-.064-.414.09-.127.215-.287.155-.527.207-.352.077-.715.06-1.069.004-.164-.026-.297.05-.44-.141-.125-.168-.49-.282-.469-.41.022-.132-.267.082-.195-.17.037-.131.013.074-.115-.013-.167-.114-.24-.173-.195-.38.04-.188.084-.472-.178-.454-.155.01-.207-.066-.21-.217-.004-.096-.056-.042-.1-.198-.05-.178-.093-.295-.106-.521-.032-.551.01-1.103.008-1.654-.006-.802.102-1.613-.028-2.405-.04-.252.173-.44.15-.67-.024-.223.132-.384.089-.636-.033-.186.125-.3.099-.495-.025-.18.149-.294.096-.484-.085-.303.22-.55.096-.857-.132-.324.209-.589.098-.897-.08-.225.107-.38.118-.584.017-.299-.215-.664-.025-.898.227-.28-.154-.735.087-.944.223-.195-.04-.535.095-.758.162-.266-.047-.588.086-.855a1.16 1.16 0 00.145-.598 89.054 89.054 0 01-.034-3.554c.003-.304-.244-.756.017-.915.24-.147.33-.366.207-.627-.115-.242.01-.344.079-.592.036-.13-.046-.292.11-.366.182-.086.146-.201.198-.396.056-.21.192-.372.102-.618-.048-.132.147-.008.102-.218-.05-.232.112-.443.241-.6.07-.083.168-.149.153-.27-.021-.176.145-.228.214-.412.09-.24.04.068.09-.003.1-.14-.024-.477.109-.46.348.043.225-.33.431-.532.122-.12.228-.165.154-.377-.029-.083.086-.457.087-.285 0 .19.136-.178.1-.284-.073-.206.046-.475.22-.502.244-.037.15-.376.152-.636.002-.122.108.02.165-.12.098-.238.273-.457.254-.722a.977.977 0 01.297-.792c.135-.137.376-.297.297-.495-.108-.272-.066-.47.198-.595.182-.086.263-.205.198-.396-.069-.205.048-.28.1-.495.028-.117.112-.11.15-.217.066-.183.2-.307.223-.534.024-.242.151-.468.222-.684.05-.154-.027-.394.116-.474.126-.072.37-.37.214-.299-.202.092.077-.16.064-.267-.017-.152-.036-.263.1-.396.116-.114.007-.345.197-.396.198-.053.172-.077.198-.297.019-.154.164-.22.111-.42-.044-.17.166-.286.093-.422-.057-.106.118-.048.093-.149-.06-.241.284-.404.201-.618-.05-.13.163-.022.116-.21-.04-.161.101-.204.096-.393-.005-.162.118-.2.099-.396-.018-.175.114-.228.092-.398-.013-.102.05-.08.09-.262.053-.243.193-.452.108-.725-.049-.159.188-.303.085-.392-.194-.167-.549.098-.726-.059-.18-.159-.434-.13-.673-.129-.292.001-.717-.228-.874.018-.15.235-.526-.094-.663.087-.183.24-.544-.058-.744.096-.187.144-.42.12-.67.12-.364-.002-.897-.316-1.092-.007-.152.242-.488-.056-.662.087-.203.168-.467.1-.71.092-.227-.01-.41.097-.648.13-.356.048-.714-.017-1.072-.02-.421-.003-1.016-.332-1.265.008-.207.282-.684-.152-.85.083-.156.22-.517-.077-.635.115-.132.212-.295.226-.547.214-.241-.012-.442-.015-.68.143-.158.104-.276.218-.491.15-.177-.057-.288.157-.43.098-.246-.102-.357.144-.64.09-.218-.043-.49-.064-.607.116-.128.195-.315.197-.566.179-.163-.012-.267.18-.429.109-.251-.111-.4-.07-.624.084-.185.127-.349.267-.566.214-.163-.04-.261.14-.41.096-.194-.056-.302.19-.527.093-.213-.092-.312.004-.514.097-.104.047-.405.32-.176.085.143-.146-.276.138-.366.122-.281-.048-.614-.025-.774.209-.1.145-.186.17-.413.233-.156.043-.28.046-.45.143-.156.09-.28.252-.443.206-.174-.048-.302.03-.427.138-.164.14-.563.103-.522.272.045.19-.172.023-.312.205-.136.175-.28.059-.518.225-.12.084-.219.202-.377.145-.133-.048-.014.119-.193.127-.239.01-.448.025-.601.188-.09.096-.205.244-.32.183-.097-.052-.036.078-.148.093-.262.035-.641-.217-.792 0-.15.217-.453.158-.665.1-.201-.055-.329.146-.508.117-.2-.032-.338.144-.554.093-.191-.045-.34.18-.501.092-.146-.08-.093.116-.172.105-.153-.022-.247.144-.398.09-.132-.047.117.025-.013.106-.143.09-.279.278-.408.194-.236-.154-.08.071-.303.177-.157.075-.267.06-.44.213-.166.147-.358.161-.554.229-.186.064.107.075-.08.137-.144.048-.238.19-.392.137-.165-.058-.269.154-.408.1-.181-.072-.282-.043-.447.09-.178.143-.416.04-.594.198-.198.177-.39.244-.643.205-.182-.028-.255.158-.399.166-.17.009-.346-.047-.444.125-.099.173-.232.273-.42.204-.104-.039-.05.13-.174.093-.288-.089-.438.292-.742.198-.24-.075-.42.045-.602.178-.129.094.06-.074-.118-.008-.228.086-.436.12-.698.111-.171-.006-.244.01-.445.103-.137.064-.306-.044-.428.103-.167.201-.46-.015-.663.094-.138.074-.321-.054-.43.102-.167.238-.377.29-.661.22-.253-.064-.507-.033-.7.11-.18.132-.454.103-.553.274-.1.172-.226.232-.42.202-.12-.019-.233.012-.3.116-.123.19-.233.146-.513.233-.194.06-.366.191-.596.224-.193.027-.31.163-.5.189a1.898 1.898 0 00-.476.136c-.09.034.091-.07-.128.094-.174.13-.359.346-.58.3-.229-.049-.456.094-.597.238-.128.133-.247.16-.469.153-.139-.004-.198.09-.398.088-.177-.003-.286.078-.397.226-.16.213-.379.182-.666.177-.161-.003-.244.112-.455.101-.222-.01-.46-.07-.635.097-.193.185-.37.248-.637.21-.18-.024-.302.17-.484.097-.259-.105-.392.024-.652.11-.27.09-.604.08-.584-.207.01-.154-.072-.253-.217-.21-.154.045-.049-.139-.266-.11-.13.016-.116-.011-.248-.118-.115-.094-.165-.267-.348-.248-.185.019-.132-.122-.277-.23-.083-.061-.165-.125-.249-.185z"/><path d="M47.605 51.52c-.433.021-.889.141-1.318.117-.303-.017-.887-.149-1.01.105-.138.29-.553.068-.85.122-.39.07-.825-.047-1.13.176-.23.167-.509.046-.75.083-.25.038-.449-.008-.485.217-.056.347-.627.336-.943.491-.311.153.083.09-.14.214-.223.123-.574.24-.696.394-.237.297.061.137-.253.184-.192.03-.24.265-.53.193-.273-.069-.497.107-.524.416-.023.273-.103.302-.186.43-.216.33-.182.75-.297 1.14-.121.41-.168.769-.295 1.138-.086.248-.124.502-.258.641-.12.124.026.514-.188.498-.34-.025.089.124-.148.198-.128.04-.198.403-.248.595-.076.295-.267.544-.346.84-.1.376-.193.771-.24 1.165-.059.489-.291.917-.41 1.358-.161.605-.275 1.162-.275 1.798 0 .281.002.505-.214.68-.327.267-.284.737-.179 1.173.087.36.001.666-.167.957-.214.37-.104.875-.347 1.237-.197.293.041.676-.125.984-.203.376-.075.734-.058 1.103.016.33.03.588-.213.784-.431.348-.157 1.032-.305 1.557-.124.444-.273.8-.173 1.263.065.304-.16.573-.264.745-.145.24-.178.64-.149.99.03.364.13.816-.179 1.061-.314.25-.216.684-.095 1.08a.892.892 0 01-.221.929c-.254.257.007.691-.113 1.008-.176.47-.264.928-.175 1.447.075.436-.123.838-.306 1.209-.22.447-.235.833-.183 1.295.029.249.024.555-.19.58-.296.033-.151.605-.228.912-.062.25-.155.598-.181.397-.044-.333-.04.779-.11 1.123-.082.418-.31.743-.172 1.202.116.39-.105.79-.322 1.125-.177.274-.009.604-.105.889-.15.449-.168.935-.172 1.413-.003.263-.014.494-.169.718-.273.396-.214.974-.163 1.513.043.463.159 1.005-.11 1.396-.287.416-.169.806-.06 1.256.1.412.058.827-.211 1.133-.34.387-.206.905-.19 1.396.012.414.094.798-.21 1.078-.277.253-.099.754-.31 1.076-.356.542.037 1.296-.007 1.944-.027.395.11.736.098 1.124-.013.436.01.822.245 1.178.27.407.155.704.068 1.132-.108.527.211.908.088 1.405-.06.246 0 .402.218.559.279.2.106.624.148.941.043.313.219.385.148.742-.08.411.056.75.297.892.194.114.198.59.403.84.28.343.288.773.454 1.155.086.199.13.107.134.282.01.393.208.54.531.713.18.096.491.288.238.409-.38.18.47.891.893 1.049.365.135.628.42.857.759.164.242.52.42.845.638.308.207.625.477 1.008.625.413.159.687.362 1.021.62.262.2.425.116.35.336-.108.319.437.28.475.612.042.367.352.571.771.506.353-.054.31.211.516.316.41.208.804.37 1.207.55.418.186.906.09 1.29.294.36.19.705.104 1.088.099.47-.007.889.276 1.338.297.44.02.876.2 1.364.117.773-.131 1.568.035 2.349-.019.563-.038 1.11.131 1.584-.198.604-.42 1.471 0 2.204.02.487.014.93-.033 1.389-.138.401-.092.839.141 1.132-.16.267-.275.745-.096 1.123-.11.289-.012.71.05.78-.183.084-.278.612-.161.898-.32.336-.185.485-.233.743-.395.35-.221.737-.492 1.17-.484.206.003.466 0 .457-.187-.022-.438.796-.204 1.256-.14.412.056.815.152 1.245.137.451-.017.96.12 1.333-.134.339-.23.82.024 1.232.015.956-.02 1.915-.025 2.87.022.452.022.886-.188 1.375-.113.56.087 1.038-.23 1.593-.091.504.125 1.012-.085 1.481-.313.453-.22.895-.21 1.386-.25.342-.027.58-.26.92-.23.397.033.787-.12 1.11-.362.289-.215.712-.08 1.03-.254.41-.224.882-.324 1.312-.452.166-.05-.003-.066.184-.135.385-.143.736-.49 1.21-.506.487-.016.956-.222 1.463-.088.45.118.918.023 1.361.112.335.068.744-.06.865-.313.155-.323.642-.516.789-.821.24-.502.87-.762 1.393-.953.34-.124.729-.194 1.039-.401.3-.201.57-.447.89-.198.29.224.155.19.27-.08.161-.383.809-.089 1.218-.113.404-.025.776-.13 1.135-.255.147-.05.784.02.595-.141-.049-.043.496-.213.697-.193.496.048.884-.315 1.211-.718.088-.108.741-.133.514-.183-.152-.034.493-.296.641-.546a1.966 1.966 0 011.085-.863 4.002 4.002 0 011.348-.176c.383.013.808-.141.94-.498.106-.29.226-.295.394-.401.19-.122.376.048.433-.011.115-.117.496-.425.562-.624.1-.298.215-.52.344-.81.14-.311.082-.238.15-.23.216.024.22-.338.306-.542.121-.29.065-.333.337-.151.346.23.546-.706.407-1.206-.054-.192-.064-.331-.159-.528-.16-.33-.157-.722-.347-1.04-.205-.343-.18-.644-.197-.99-.023-.474-.204-.847-.343-1.288-.154-.486-.093-.993-.403-1.405-.273-.365-.303-.91-.443-1.367-.115-.373-.236-.725-.36-1.088a12.478 12.478 0 00-.496-1.203c-.083-.18-.104-.056-.132-.234-.056-.36-.401-.605-.577-.912-.17-.296-.305-.444-.206-.752.117-.363-.238-.632-.433-.944-.225-.36-.275-.792-.473-1.156-.208-.382-.311-.795-.486-1.187-.177-.4-.272-.86-.352-1.286-.072-.39-.155-.79-.347-1.14-.236-.43-.248-.89-.187-1.367a.951.951 0 00-.19-.683c-.252-.346-.128-.782-.221-1.165a4.767 4.767 0 00-.373-1.014c-.165-.318-.327-.658-.2-1.064.144-.456-.051-.906-.087-1.349-.036-.451-.19-.882-.113-1.369.07-.448-.22-.73-.095-1.183.133-.482-.261-.821-.117-1.301.03-.104-.165-.522-.072-.823.12-.39.034-.764-.226-1.059-.238-.27-.158-.58-.087-.909.08-.365-.03-.726-.209-1.071-.31-.6.042-1.346-.015-2.018-.044-.51.049-.985.144-1.466.094-.478-.163-1.023.036-1.47.137-.306-.144-.858.154-1.161.334-.339.19-.748.055-1.174-.106-.333.004-.656.2-.902.296-.37.023-.966.033-1.446.01-.434-.162-.772-.275-1.17-.06-.21-.1-.103-.157-.272-.146-.438-.405-.791-.455-1.25-.046-.433-.425-.778-.862-.937-.225-.082-.357-.187-.488-.458-.197-.408-.69-.669-1.143-.733-.398-.057-.695-.318-1.04-.495-.105-.055-.764-.293-.453-.288.318.004-.522-.204-.785-.207-.454-.006-.568-.354-.99-.297-.484.064-.881-.25-1.336-.349a6.935 6.935 0 01-1.14-.344c-.37-.15-.747-.254-1.089-.396-.294-.123-.528-.084-.813-.103-.427-.028-.81-.23-1.277-.098-.531.15-1.157-.125-1.643.122-1.049.533-2.356-.05-3.532 0-.58.024-1.098-.039-1.647-.12-.474-.07-.958.041-1.387-.22-.561-.343-1.312.004-1.968-.008-.51-.01-.979.251-1.504.103-.484-.137-.973.175-1.486.096-.43-.066-.834-.009-1.168.253-.396.31-.81.135-1.268.094-.567-.05-1.134.02-1.7 0-.535-.02-1.001.063-1.45-.224-.47-.3-1.117-.145-1.636-.39-.471-.224-.99-.115-1.485-.1v.002c-.119-.28-.254-.539-.525-.7-.302-.179-.435-.356-.566-.688-.228-.573-.887-.862-1.312-1.312-.33-.35-.774-.642-.965-1.064-.173-.381-.466-.51-.793-.792-.247-.213-.37-.187-.593-.297-.304-.15-.255-.13-.488-.197-.51-.147-.832-.251-1.3-.19-.537.069-1.054-.268-1.62-.23-.513.034-1.071.152-1.544-.076-.232-.113-.484-.136-.744-.124zm2.823 5.891c.247.003.493.017.739.05.305.043.61-.129.878.103.128.11.464.051.313.317-.033.057.182.134-.041.01-.156-.086-.547.185-.257.103.13-.036.123.34-.035.425-.297.16.208.915-.113 1.045-.248.101-.057.658-.103.94-.068.419.308.854.107 1.173-.112.176.069.6.076.546.03-.222.256.07.366.164.154.132.523-.008.55.17.024.153.252.31.489.374.384.103.698.445 1.036.675.334.227.694.362 1.043.514.247.107.521.15.743.297.294.195.451.578.885.557.288-.013.198.186.257.38.096.32.254.592.465.895.206.298.68.462.72.84.046.44.494.534.796.774.291.232.67.287.696.735.013.228.282.182.553.192.479.017.965-.09 1.436.004.292.059.469-.168.68-.318l.001.002c.387-.088 1.313.378 1.188 0-.073-.22.593-.107.425-.198-.227-.123.13-.243.268-.198.35.115.703.167.693-.198-.005-.23.081.18.08-.128-.004-.39.082-.703.125-1.129.037-.363.024-.708-.155-.971-.21-.31-.143-.61-.169-1.033-.023-.374-.038-.787-.081-1.095-.04-.28-.301-.336-.344-.546-.038-.184.09-.32-.149-.347-.26-.03.228-.003.33 0 .25.006.46.169.71.105.282-.072.195.092.393.094.832.006 1.79.462 2.496.022.387-.241.89-.12 1.343-.121.83-.003 1.758-.416 2.489-.024.322.173.709.16 1.09.144 1.227-.05 2.479-.298 3.68-.05.359.074.738-.1 1.072.102.29.176.667-.06.954.125.23.149.456.286.71.216.408-.112.742.134 1.122.23.292.072.422.203.644.346.218.14.212.237.396.396.18.156.33.466.543.405.223-.064.505.04.512.224.01.297.455.311.34.606-.093.239-.021.369.19.547.392.333-.106.93.182 1.244.265.288.282.662.228 1.054-.056.403.233.767.187 1.154-.04.336-.162.64.075.941.256.325.135.79.132 1.186-.004.681-.485 1.554-.013 2.046.257.268.155.726.076 1.06-.108.455.076.846.14 1.278.06.408-.26.802-.129 1.166.151.418-.098.7-.094 1.123.005.384.022.677.088 1.109.053.34.112.639.095 1.023-.013.31.1.5.107.87.006.37-.08.743.113 1.085.198.351.279.73.214 1.133-.051.315.178.576.113.882-.07.33.212.608.099.916-.141.386-.23.826.055 1.086.242.22.296.502.227.827-.06.28.474.721.217.73-.228.008.104.361.263.466.187.123.17.254.201.443.054.324.171.653.416.871.193.173.067.39.228.665.154.263.26.507.32.766.1.422.071.887.035 1.323-.035.416.087.8.093 1.177.006.38.283.74.203 1.114-.08.372-.134.747.088 1.067.174.252.078.537.2.792.157.33.195.666.201 1.04.003.219-.12.492.094.644.19.135.213.317.204.544-.012.319.023.64.291.842.23.174.038-.006.146.277.123.32.375.322.349.664-.017.212.164.501.22.637.092.22.299.41.286.67-.018.373-.056.747.207 1.048.137.157.226.241.194.456-.052.345.087.608.236.893.098.189.134.16.156.344.04.33-.045.547-.184.803-.113.208-.326.292-.422.397-.162.178-.486.284-.669.442-.282.244-.566.394-.878.615-.292.207-.553.461-.928.478-.3.013-.573.356-.863.377-.237.016-.326.232-.524.216-.224-.017-.655-.13-.594.1.057.212-.046.078-.219.205-.161.119-.463.292-.665.268-.313-.038-.514.206-.8.319-.403.159-.83.294-1.238.493-.351.172-.708.292-1.039.497-.315.195-.654.235-1.016.403-.277.128-.503.34-.766.389-.364.067-.776.195-1.117.416-.174.113-.374.284-.615.283a1.467 1.467 0 00-.744.192c-.325.175-.907-.032-1.007.285-.072.232-.483.181-.75.216-.394.05-.794.083-1.22.105-.43.022-.812-.127-1.213-.138-.55-.016-1.217.366-1.652.027-.298-.232-.809-.286-1.128-.105-.386.22-.808.38-1.211.23-.427-.16-.78-.192-1.157.059-.296.197-.675-.062-.967.093-.336.18-.716.126-1.09.122-.797-.007-1.744-.482-2.39-.017-.356.256-.714.168-1.151.236-.315.05-.59.067-.952.091-.414.028-.792-.012-1.207.101-.338.092-.3-.034-.635-.125-.386-.105-.712.027-1.044.11-.275.067-.576-.046-.833.096-.28.154-.774.03-.944.33-.149.263-.595.03-.643.211-.028.11-.207.177-.363.163-.345-.03-.605.076-.928.22-.34.152-.716.27-1.033.413-.219.099-.48.086-.693.198-.199.103-.42.247-.633.157-.326-.138-.29.036-.64.093-.322.053-.711-.06-.964.178-.285.27-.72-.04-1.032.138-.326.188-.73.126-1.087.095-.565-.05-1.283.38-1.694-.008-.277-.261-.636-.278-1.022-.22-.333.048-.61-.193-.936-.113-.435.109-.877.182-1.252-.073-.318-.217-.645-.322-1.024-.224-.391.1-.804.14-1.106-.095-.248-.194-.495-.234-.811-.19-.26.036-.532.133-.723-.085-.26-.3-.832-.15-.9-.482-.045-.221-.244-.223-.53-.342-.332-.14-.503-.506-.757-.755a5.076 5.076 0 01-.634-.748c-.2-.287-.305-.674-.545-.94a2.093 2.093 0 01-.5-.94c-.083-.341-.082-.617-.283-.946-.17-.277-.268-.546-.23-.864.036-.298-.203-.552-.095-.83.135-.347.18-.628-.064-.922-.276-.332-.21-.736-.234-1.177-.036-.68-.285-1.417-.004-2.039.16-.355-.196-.9.123-1.16.227-.186-.062-.602.082-.835.222-.36-.133-.838.092-1.163.235-.34.245-.69.246-1.09.002-.374.111-.7.09-1.097-.021-.395-.058-.796.089-1.145.154-.367-.188-.9.077-1.238.24-.306.35-.676.23-1.061-.125-.4-.033-.737.084-1.12.099-.321-.079-.683.188-.934.234-.22.23-.483.221-.817-.007-.298-.054-.616.108-.874.13-.206.272-.406.19-.635-.112-.318-.15-.546.063-.86.172-.255-.05-.625.14-.858a.924.924 0 00.193-.785c-.084-.346-.1-.641.108-.921.144-.194.246-.37.19-.615-.056-.246-.067-.466.106-.649.18-.19.225-.454.185-.738-.051-.359.236-.631.196-.964-.036-.3-.05-.529.092-.846.131-.292.279-.525.277-.84-.004-.316-.102-.657.139-.87.209-.186.226-.438.19-.735-.033-.259-.115-.514.087-.723.173-.179.276-.445.207-.689-.085-.3-.173-.6.09-.796.254-.189.216-.448.21-.761-.003-.29-.086-.64.11-.85.144-.156.462-.209.373-.568-.053-.216.222.058.209-.293-.012-.315-.203-.707.068-.93.3-.247.34-.547.238-.92-.079-.29.059-.52.084-.776.022-.219-.028-.412.095-.646.128-.247.222-.484.207-.738-.018-.306.367-.534.287-.846-.04-.16 0-.045.096-.32.113-.322.296-.633.396-.969.095-.317.37-.593.38-.937.01-.35.027-.63.217-.943.167-.274.225-.634.347-.94.108-.268.31-.471.355-.79.032-.23-.202-.65.076-.71.193-.043.335-.27.311-.53-.03-.342.169-.628.293-.941.128-.323.11-.68.302-.94.196-.267.267-.627.374-.94.123-.36.326-.679.418-1.041.058-.23.408-.41.303-.643-.093-.207.056-.082.093-.347.042-.3-.136-.571.186-.57.2.002.28-.078.226-.265-.051-.174-.05-.457.105-.459.283-.003-.112-.168.11-.157.225.01.147.043.397-.128.195-.133.615-.076.66-.253.038-.155.234-.24.439-.162.398.153.546-.211.992-.197.743.025 1.492-.07 2.234-.06zM112.619 134.968c-.087.081-.135.275-.248.274-.072 0-.025.067-.087.127-.034.033.017.037-.07.085-.064.035.003.027-.085.144-.07.094-.051.258-.139.327-.058.045-.216-.006-.151.122.043.086-.018.154-.089.206-.07.051-.024.148-.125.192-.11.047 0 .19-.083.244-.067.044-.04.147-.12.18-.094.04-.133.088-.127.19.005.065-.09.085-.076.15.02.109-.08.181-.133.265-.06.098.085.267-.023.314-.116.05-.022.167-.097.26-.06.074-.117.155-.104.26.02.17-.036.364.076.511.056.073.152.114.176.21.022.09.05.139.11.221.049.066.09.102.135.2.034.073.117.09.137.193.017.085.185.1.147.191-.042.1.08.133.114.216.03.073.066.13.12.214.033.054.08-.022.11.079.03.1.126.165.213.213.096.053.054.155.129.23.073.073.242.113.223.22-.023.133.216.15.207.264-.007.107.067.316.158.282.104-.038.062.088.088.16.043.12.16.004.243.113.092.12.128.388.281.356.135-.029.154.205.265.2.076-.002.226.165.176.104-.08-.097.054.043.11.04.064-.005.086.096.15.076.104-.034.115.133.198.135.094.003.176.003.24.098.075.11.245-.039.318.042.06.066.132.096.23.072.107-.027.184.12.296.06.062-.033.038.072.118.083.127.017.258 0 .387 0 .334.001.669-.009 1.003.001.123.005.312.104.371-.007.05-.095.168-.088.263-.078.12.014.31.123.367.006.054-.11.18-.066.275-.053.098.014.12-.098.232-.096.11.002.277.114.333.01.046-.086.148-.088.235-.08.121.008.254.055.37-.018.083-.052.17-.162.272-.107.107.057.13-.095.232-.071.084.019.3-.087.264-.074-.058.021-.097.02-.032-.038.072-.065.169.007.247-.023.056-.022.072-.053.152-.073a.985.985 0 00.334-.137c.057-.04.1-.041.192-.069.088-.026.196-.054.244-.144.036-.069.134-.029.16-.085.04-.093.144-.057.222-.05.112.01.127-.203.23-.149.11.058.126-.059.247-.06.1 0 .181-.077.24-.149.08-.097.202-.064.302-.137.105-.078.162-.216.298-.253.09-.024.107-.184.192-.167.106.02.182-.078.243-.149.12-.139.275-.251.364-.41.056-.1.185-.027.208-.158.017-.099.187-.118.168-.21-.024-.117.122-.165.206-.202.117-.052.075-.19.154-.29.173-.218.566-.3.597-.577.015-.128.107-.224.21-.309.11-.09.329-.158.303-.303-.022-.132.252-.158.208-.263-.042-.096.058-.106.07-.21.011-.111.19-.17.142-.262-.056-.107.017-.136.068-.228.055-.102.153-.185.154-.313 0-.132-.132-.336-.01-.398.094-.047.083-.156.082-.245-.005-.213-.113-.446-.02-.64a.71.71 0 00.086-.302c.004-.278.215-.674-.012-.833-.067-.047-.03-.116-.065-.194-.025-.056-.028-.089-.075-.156-.037-.054-.035.025-.045-.071-.01-.094-.051-.137-.104-.225-.056-.094-.259-.14-.201-.265.044-.096-.025-.115-.07-.21-.049-.104-.173-.103-.246-.19-.067-.078-.061-.189-.124-.26-.073-.083-.079-.207-.197-.26-.092-.042-.135-.092-.127-.19.004-.066-.097-.087-.076-.15.023-.069-.063-.01-.07-.07-.01-.08.017-.166-.06-.23-.099-.081-.06-.199-.091-.304-.016-.055-.029-.044-.084-.097-.067-.064-.12-.106-.115-.21.006-.121-.037-.259-.132-.332a.32.32 0 01-.121-.27c.005-.112-.038-.169-.107-.255-.05-.063-.036-.138-.13-.193-.102-.06-.083-.164-.13-.264-.05-.105-.236-.139-.22-.262.011-.095-.15-.104-.145-.191.007-.125-.09-.235-.178-.317-.127-.12-.431-.196-.378-.367.032-.102-.14-.118-.134-.2.006-.065-.1-.089-.076-.15.038-.096-.018-.12-.07-.21-.06-.104-.177-.15-.24-.256-.1-.168-.32-.348-.252-.532.032-.086.014-.132-.068-.193-.053-.04-.02-.118-.077-.15-.102-.057-.032-.213-.133-.27-.08-.045-.087-.131-.062-.216.031-.109-.095-.02-.109-.113-.015-.103-.06-.154-.118-.246-.059-.095-.144-.14-.201-.265-.034-.074-.107-.091-.135-.195-.011-.046-.134.013-.084-.063.073-.111-.08-.123-.052-.254.017-.083.015.058-.079-.006-.08-.056.01-.273-.07-.252-.144.037-.058-.159-.063-.237-.006-.11-.146-.168-.15-.275-.004-.156-.107-.358.003-.468.042-.042.006-.164.07-.14.099.036.113-.099.233-.062.098.031-.01-.032.102-.074.045-.017-.002-.056.063-.109.07-.056.194.01.178-.121-.01-.09.012.017.131-.081.081-.067.076-.141.118-.235.017-.035.089-.195.083-.11-.005.057-.013.066.039.017.08-.076-.026-.213.083-.26.07-.032.039-.18.098-.16.14.045.031-.113.096-.192a.424.424 0 00.113-.277c0-.169.132-.41-.006-.507-.073-.052-.094-.137-.088-.23.007-.112.118-.289.012-.341-.1-.05-.096-.172-.06-.259.04-.1-.058-.153-.082-.238-.032-.117.088-.27-.004-.354-.065-.06-.084-.118-.138-.204-.06-.095-.132-.146-.202-.265a.291.291 0 00-.193-.137c-.09-.02-.111-.194-.209-.152-.105.045-.056-.147-.088-.2-.04-.068-.123-.078-.195-.135-.037-.03 0-.111-.075-.138-.109-.04-.06-.147-.145-.212-.075-.058.032.057.01-.043-.02-.09-.166-.102-.16-.19.01-.12-.102-.21-.162-.307-.048-.077-.141-.064-.195-.109-.097-.08.107-.015.022-.085-.074-.062-.182-.018-.228-.123-.042-.095-.164-.027-.202-.13-.039-.102-.095-.14-.2-.133-.065.004-.085-.09-.15-.077-.135.029-.154-.199-.265-.201-.066-.001-.09-.103-.155-.079-.084.031-.03-.086-.077-.074-.106.027-.179-.075-.258-.128-.082-.054-.177.028-.263-.031-.094-.065-.19-.163-.313-.113-.101.043-.15-.067-.234-.082-.075-.013-.168.048-.229-.036-.065-.09-.215.05-.264-.05-.045-.093-.155-.017-.227-.04-.071-.024-.097-.042-.202-.07-.077-.02-.12-.123-.225-.08-.096.041-.152-.04-.24-.07-.076-.026-.178.053-.234-.03-.07-.102-.254.062-.305-.029-.022-.038.012-.095-.079-.096-.097-.002-.246.105-.291.013-.05-.101-.174-.073-.265-.067-.117.007-.297.11-.355.004-.059-.107-.18-.083-.277-.056-.068.018-.025-.06-.073-.084-.084-.042-.182-.009-.267.016-.07.019-.024-.075-.083-.086-.13-.025-.272-.048-.398-.007-.055.018-.004.107-.082.139-.07.028-.035.169-.088.151-.146-.047-.052.078-.117.187-.052.086-.018.197-.01.292.004.065-.033.046-.075.148-.022.05-.062.011-.063.136a.247.247 0 01-.115.195c-.13.085-.292.04-.426 0-.104-.03-.165.12-.253.093-.065-.02-.035.02-.124.066-.095.05-.208.009-.305-.017-.067-.018-.034.066-.115.087-.062.016-.024.029-.14.07-.08.029-.156-.015-.247.018-.044.017-.115.028-.024.052.085.023-.057.18-.079.05-.009-.054-.075.087-.068.126.013.08.016-.06-.072-.008-.087.052-.057.159-.123.234-.042.047 0-.043.004.012.006.087-.096.124-.14.186a.73.73 0 00-.085.16c-.037.085-.007.181-.006.272.006.383.084.773.01 1.15-.024.124-.095.224-.093.365.003.18.174.461.008.544-.11.055-.07.19-.068.289.003.198.155.46.009.594-.07.066-.088.15-.09.25-.007.335-.04.674.01 1.005.01.065.037.082.074.162.034.074.103.095.137.193.041.121.217.15.24.28.018.098.06.148.12.238.043.065.044.13.129.192.03.023.02-.011.072.06.047.065.117.13.072.227-.045.096.083.146.073.227-.013.112.096.193.06.32-.02.065.075.017.077.084.002.08.067.111.07.21.003.075.055.103.065.199.009.087-.008.18.093.237.096.055.068.178.046.265-.017.066.054.042.076.139.016.07.073.098.064.2-.01.103.103.166.13.26.019.067.054.097.086.17.034.076-.07.216.025.237.112.026-.017.092.102.177.052.037.015.025.076.142.034.066-.016.154.059.225.077.074.045.176.088.27.034.073.111.092.138.193.013.052-.039.134.075.065.07-.042.057.078.08.112.07.105.142.249.268.26.146.011.001.195.085.229.092.037.023.223.133.193.137-.038.012.146.057.196.05.055.067.096.064.192-.003.074.139-.01.087.08-.038.064.075.02.064.09-.009.05.023.001.063.066.02.033-.014.015.064.068.052.036-.045.091.074.144.08.035.245.164.164.202-.037.018-.087-.012-.036.056.054.071.118.052.214.09.126.048.099.214.174.308.098.122.366.17.333.326-.022.11.088.177.162.236.076.06.252.128.199.215-.06.097.108.072.158.11.097.074.003.167.07.255.1.13.383.22.321.375-.038.096-.013.148.07.21.054.04.02.12.077.15.096.05.091.134.131.236.035.089.156.145.13.256-.023.094.037.168.115.22.086.06-.02.182.032.246.043.052.037.102.081.163.049.066.092.101.134.2.046.104.187.13.207.262.014.087.158.097.143.192-.011.074.022.094.07.175.064.11.191.158.249.279.048.102.078.228.184.288.087.05.148.1.127.204-.02.108.134.166.133.265-.001.066.09.087.077.155-.02.109.114.168.133.265.02.101.015.213.018.319.002.075.039.228-.1.18-.1-.034.003.127-.117.08-.106-.04-.135.078-.26.082a9.543 9.543 0 01-.713-.004c-.083-.003-.199.029-.256-.047-.071-.095-.222.034-.302-.03-.056-.046-.095-.056-.19-.07-.102-.014-.16-.166-.26-.148-.107.018-.171-.174-.263-.137-.096.038-.119-.022-.21-.07-.18-.097-.22-.465-.42-.42-.09.02-.224-.05-.205-.13.025-.104-.195-.285-.107-.236.038.02.074.054.049-.019-.034-.1-.206-.172-.16-.263.054-.104-.128-.01-.073-.103.037-.065-.079-.02-.064-.09.017-.084-.038-.186-.119-.198-.065-.01-.087-.071-.161-.082-.055-.008-.044.012-.136-.063-.086-.07-.259.08-.304-.023-.042-.095-.147-.053-.225-.046-.08.007.02-.077-.092-.08-.157-.005-.329.063-.47-.003-.082-.038-.05.097-.11.079-.062-.019-.229.081-.176.066.084-.025.082.033.027.085-.081.075-.178.13-.266.195zM134.536 142.04c.083-.21-.136-.278-.306-.279-.142-.001-.228-.052-.189-.156.052-.139-.023.003-.135-.125-.111-.125-.207-.392-.368-.352-.095.024-.056-.107-.157-.173-.132-.086-.106-.261-.267-.331-.076-.034-.183-.32-.188-.203-.006.136-.078-.122-.087-.167-.028-.142-.116-.211-.203-.331-.104-.143-.373-.23-.34-.404.025-.139-.123-.167-.157-.315a.518.518 0 00-.21-.334c-.107-.075-.032-.206-.17-.31-.124-.092-.136-.24-.234-.371-.083-.112-.09-.224-.165-.35-.073-.12-.065-.242-.157-.378a.768.768 0 01-.152-.427c0-.124.015-.214-.086-.316-.112-.115-.071-.3-.2-.442-.085-.092-.205-.187-.156-.292.074-.157-.056-.229-.153-.333-.063-.068-.157-.14-.125-.228.066-.18-.125-.2-.158-.405-.027-.17-.292-.255-.26-.417.017-.095.016-.14-.063-.247-.097-.132-.269-.26-.22-.4.041-.124-.025-.2-.091-.3-.08-.118-.22-.17-.173-.345.05-.19-.218-.306-.155-.476.05-.13.042-.212-.066-.316-.09-.086-.071-.178-.147-.298-.065-.103-.175-.19-.138-.297.046-.13.025-.197-.065-.315-.088-.115-.041-.293-.156-.37-.137-.091-.176-.229-.194-.4-.015-.139-.083-.257-.085-.407-.001-.14-.158-.055-.144-.213.015-.161-.174-.257-.127-.397.045-.131-.112-.229-.07-.348.048-.137-.115-.194-.057-.358.033-.094-.105-.098-.083-.183.025-.096.014-.135-.06-.25-.061-.097-.029-.192-.144-.296-.128-.114-.11-.243-.125-.4-.008-.08-.165-.25-.099-.24.124.02-.068-.112-.056-.2.015-.111.009-.167-.063-.301-.054-.103-.031-.191-.067-.334-.026-.107-.12-.178-.08-.315.04-.128.016-.19-.07-.31-.081-.114-.073-.246-.062-.384.012-.143-.15-.222-.078-.387.073-.168-.135-.306-.072-.454.074-.174.1-.325-.061-.433-.149-.1-.087-.245-.131-.407-.034-.123-.116-.204-.09-.345.023-.132-.088-.222-.072-.355.02-.17.03-.318-.057-.494-.053-.107.018-.287-.09-.333-.124-.051-.107-.116-.127-.26-.014-.108-.128-.176-.075-.296.063-.14.032-.211-.065-.334-.096-.121-.198-.246-.145-.384.052-.136-.1-.181-.06-.352.032-.13.014-.195-.075-.314-.086-.116-.03-.301-.153-.371-.145-.082-.28-.161-.267-.33.01-.11-.019-.157-.062-.301-.027-.09.013-.178-.078-.259-.08-.07-.18-.149-.144-.244.082-.21-.068-.249-.2-.44-.095-.136-.214-.259-.22-.408-.008-.173.177-.527.005-.518-.169.009-.072-.266-.073-.389-.005-.375-.28-.873-.003-1.127.141-.13.057-.344.079-.519.019-.151-.048-.317.052-.467.088-.132-.038-.293.05-.439.05-.083.23-.293.13-.23-.12.073.04-.135.096-.167.122-.07.1-.22.284-.298.09-.037-.077-.045-.029-.082.074-.056.199-.176.19-.118-.013.07-.048.147.02.043.039-.059-.156-.096.037-.148.15-.04.133-.323-.08-.262-.145.041-.212-.11-.38-.056-.139.043-.046-.13-.207-.1-.17.03-.297-.046-.484-.064-.414-.04-.856.175-1.244.023a.98.98 0 00-.413-.086c-.455.017-.919-.062-1.367.022-.182.033-.274-.18-.471-.094-.165.071-.299-.08-.451-.07a.913.913 0 01-.392-.049c-.193-.069-.537.182-.596-.013-.03-.1-.07-.042-.14-.14-.09-.126-.426-.164-.359-.294.093-.18-.185-.202-.127-.4.036-.123-.171-.047-.158-.206.01-.13-.054-.217-.058-.373-.008-.276-.204-.644.001-.828.117-.104.038-.311.213-.403.152-.08.16-.147.149-.32-.01-.12.068-.231.059-.351-.012-.154.137-.283.075-.43-.057-.134.006-.178.06-.337.049-.143-.065-.335.065-.44.101-.082-.035-.33.08-.31.18.033-.02-.167.201-.283.117-.061.078-.252.266-.268.097-.01.102-.172.177-.155.087.02.18.008.216-.077.076-.184.275-.08.4-.197a.493.493 0 01.401-.133c.104.007.155-.098.256-.085.152.019.285-.117.427-.065.129.046.241.063.316-.067.09-.156.331.056.402-.063.092-.156.223-.222.384-.152.144.062.19-.008.355-.057.16-.049.284-.212.48-.146.15.05.197-.09.377-.065.133.017.19-.085.354-.079.168.008.345.07.486-.061.088-.083.215-.001.313-.077.112-.087.249-.077.384-.06a.666.666 0 00.405-.074c.105-.05.198-.114.341-.074.162.046.268-.11.447-.067.13.03.23.049.313-.075.109-.164.253-.146.457-.152.146-.004.25-.103.414-.067.137.03.22-.079.357-.072.147.007.245-.097.413-.068.132.023.214-.096.35-.07.132.025.216-.087.348-.066.129.02.222-.115.347-.07.117.043.192-.112.288-.07.13.055.246.07.317-.065.068-.13.16-.204.296-.145.14.062.283.082.334-.064.034-.099.029-.178.14-.14.15.05.202-.033.368-.066.095-.018.294.044.262-.075-.028-.107.06-.125.159-.147.134-.03.224-.096.401-.063.134.025.26-.025.3-.155.027-.09 0-.123.12-.125a.533.533 0 00.279-.095c.121-.07.295-.066.385-.151.083-.077.223-.037.33-.14.085-.082.43-.113.293-.1-.211.022.128-.024.183-.074.104-.092.228-.28.367-.215.199.093.23-.154.403-.205.203-.06.32-.306.524-.33.105-.011.21-.02.266-.105.052-.08.112-.165.207-.13.187.07.36.032.473-.135.076-.11.228-.04.302-.15.063-.095.178-.035.259-.13.095-.112.247-.06.369-.187.1-.104.233-.204.366-.166.171.05.212-.102.38-.158.073-.025-.05.083.048-.053.076-.105.218-.114.312-.126.136-.017.299-.057.37-.171.084-.132.259-.08.355-.204.082-.106.19-.151.286-.229.11-.089.243-.142.328-.271a.444.444 0 01.301-.185c.146-.03.272-.16.336-.29.086-.172.332-.187.381-.375.049-.184.237-.152.333-.28.089-.118.224-.122.333-.22.102-.09.276-.048.333-.165.064-.133.151-.148.297-.143a.302.302 0 00.228-.089c.107-.1.224-.136.4-.028.102.063.237.089.274.241.03.121.025.128.144.18.119.05.129.267.232.259.068-.006.094.05.105.14.017.137.14.248.076.383-.055.116 0 .198.08.266.071.062.15.129.13.224-.024.126.014.282.099.352.127.104-.074.318.05.404.16.111-.039.34.055.471.087.12.077.269.083.412.007.177-.153.332-.094.49.064.17-.043.304-.052.465-.005.08.006-.109-.07.039-.078.149-.049.348-.147.485-.094.131-.132.284-.207.403-.077.12-.113.265-.243.335-.138.074-.195.156-.25.312a.694.694 0 01-.317.376c-.13.071-.138.183-.274.271-.163.107-.215.35-.406.406-.117.034-.28.104-.353.218-.098.151-.32.163-.387.314-.076.167-.17.295-.344.291-.159-.003-.19.236-.33.268-.128.03-.27.072-.348.188-.074.112-.196.147-.288.222-.108.087-.239.148-.321.272-.073.11-.204.026-.332.133-.079.065-.135.125-.238.124-.132-.002-.191.116-.342.177-.126.052-.227.032-.341.17-.13.157-.394.136-.509.297-.054.077-.11.124-.208.127-.172.004-.327.122-.474.206-.129.075-.184.23-.35.28-.143.045-.222.176-.327.275-.102.097-.193.132-.316.241-.068.06-.118.116-.214.118-.159.002-.224.131-.38.226-.147.088-.326.146-.432.28-.102.128-.256.14-.38.232-.084.062-.265-.02-.261.099.006.149-.18.244-.302.301-.142.067-.284.172-.433.122-.131-.044-.214-.043-.316.067-.09.098-.324.094-.296.28a.694.694 0 01-.09.504c-.046.077-.155.052-.112.14.078.159-.02.356-.147.341-.142-.016-.292.157-.265.275.037.155-.178.002-.231.163-.076.229-.265.13-.45.172-.127.028-.33-.02-.388.1-.085.173-.442-.081-.413.104.023.144-.095.494.027.446.14-.055.168-.033.125.135-.022.085-.008.09.11.19.13.11.086.246.1.44.012.154.14.293.074.444-.08.185.162.282.066.467-.094.18-.026.271.06.44.05.097.015.184.075.306.06.118.16.212.152.337-.01.16.058.306.11.458.04.112.007-.067.035-.026.064.09.18.172.134.268-.055.116-.008.208.079.266.078.052.141.11.128.207-.02.15.137.245.136.404-.002.162.007.315.147.438.13.116.149.226.134.402-.01.124-.056.29.07.35.144.068.132.2.177.364a5.6 5.6 0 00.139.401c-.02-.056-.08-.207-.075-.05.004.171.239.275.182.439-.058.168.192.256.145.423-.036.13.12.231.068.347-.051.115.026.187.084.267.043.058.014-.035.025.05.015.106.145.41.155.336.019-.14.009.135.003.18-.009.084.073 0 .087.126.016.142-.08.329.026.442.121.13-.102.395.047.476.16.087.12.205.127.4.004.133.117.226.076.373-.031.115.095.178.073.288-.028.135.083.219.068.353-.02.176.164.256.133.457-.02.122.119.203.076.313-.053.133.008.176.053.337.026.092.018.152.08.26.063.108.104.208.142.315.044.124-.05.308.068.385.124.081.181.208.14.35-.046.161.16.248.07.42-.09.174-.072.33.07.42.168.107-.007.327.064.467.062.12.116.246.07.385-.047.142-.06.267.076.339.13.068.21.163.145.296-.088.18.219.213.144.391-.052.124.09.225.06.329-.055.178.007.224.133.406.079.112.102.245.157.384.062.155.244.264.201.435-.039.155.153.258.135.401-.013.109.131.176.082.262-.04.071.066.322.067.282.004-.155.064.1.083.151.05.13.045.29.134.391.09.104.056.253.143.353.078.092.197.192.197.33 0 .103.053.19.107.294.04.078.11.121.106.214-.005.095-.04.193.067.263.138.09.15.224.196.373.039.129.052-.167.058-.003.004.131.228.18.176.29-.068.147.006.136.143.2.125.06.04.227.14.28.149.08.226.164.267.33.04.163.306.215.283.367-.019.124.08.167.15.284.07.122.155.207.267.33.095.104.121.246.24.318.125.076.166.181.215.313.06.16.1.252.246.42.068.078.07.175.16.239.108.078.12.227.225.285.17.094.114.298.113.457 0 .186.103.409-.008.559-.074.098-.111.32-.226.285-.145-.044-.165.2-.228.207-.066.008-.215.033-.181.084.06.09-.25.12-.155.124.127.008-.042.036-.071.083a.413.413 0 01-.295.197c-.151.026-.233.196-.332.302-.092.099-.232.14-.333.258-.078.091-.319.016-.28.14.035.114-.041.173-.14.14-.08-.026-.111.072-.173.104-.09.044-.129.166-.247.177-.097.008-.166.05-.26.096-.144.07.147.006-.018.066-.117.042-.205.155-.316.122-.18-.054-.351-.03-.456.136-.076.12-.146.127-.312.178-.104.032-.216-.006-.302.097-.125.149-.343.092-.515.081-.232-.015-.92.108-.692.045.022-.005-.094.026-.068.018zM159.044 102.269a.165.165 0 01-.242-.077c-.033-.08-.206-.06-.182-.14.018-.062-.082-.228-.066-.175.036.125-.174-.01-.101-.02.052-.008.102-.005.027-.045-.09-.046-.18-.05-.262-.13-.17-.166-.306-.362-.485-.523-.053-.047-.04.07-.094.04-.104-.059-.095-.262-.205-.26a.382.382 0 01-.25-.072c-.116-.083-.265-.13-.352-.244-.069-.09-.214-.083-.258-.19-.036-.088-.095-.066-.18-.118-.096-.058-.288.093-.31-.022-.023-.124-.058-.038-.184-.112-.086-.05-.212-.03-.314-.03-.298 0-1.182.092-.893.018.105-.027-.077-.075-.124-.076-.39-.01-.811-.15-1.172.001-.099.042-.24-.021-.304.074-.05.072-.123.073-.214.069-.069-.003-.246.016-.218.063.045.077-.125.054-.148.093-.055.095-.18.047-.26.126-.09.086-.335.01-.306.127.008.033.14-.035.048.027-.086.059-.235.007-.276.1-.037.08-.089.082-.196.09-.1.007-.159.176-.25.145-.062-.02-.11.015-.135.064-.035.073-.13.037-.165.091-.06.097-.18.067-.278.137-.08.059-.11.152-.152.24-.047.096-.156.074-.226.126-.147.11-.192.429-.375.393-.106-.021-.177.081-.243.148-.096.098-.165.243-.309.273-.118.024-.04.128-.165.183-.117.053-.206.152-.291.245-.063.068-.035.157-.133.216-.082.05-.03.151-.13.202-.09.047-.16.102-.13.203.032.102-.134.117-.133.2 0 .067-.09.084-.076.15.021.107-.035.187-.105.273-.061.075-.223.147-.178.234.055.104-.034-.011-.063.107-.01.045-.053-.03-.072.068-.02.1-.159.16-.143.263.012.073-.014.098-.07.175-.026.037-.053-.048-.048.064.005.093-.012.249-.098.22-.146-.048-.027.098-.118.187-.034.032.02.042-.07.084-.088.042.054.249-.028.221-.131-.044-.053.115-.079.198-.015.05.005.207-.048.072-.02-.052-.082.093-.07.144.026.108-.11.17-.132.265-.02.082-.075.117-.078.225-.003.075-.055.103-.065.2-.009.087.012.187-.094.236-.085.04-.121.084-.115.184.005.065-.08.084-.077.15.005.082-.1.118-.07.21s.012.149-.07.21c-.053.04-.016.126-.076.15-.12.05-.026.171-.097.256-.057.067-.04.263-.114.228-.078-.037-.023.06-.07.076-.102.038-.004.235-.07.204-.078-.037-.023.06-.07.076-.117.041 0 .198-.09.24-.09.041-.059.13-.109.223-.034.063-.057.093-.068.194-.007.077-.07.09-.07.192.002.12-.191.188-.149.296.043.11-.06.19-.112.273-.059.094-.016.198-.086.305-.067.104-.128.22-.121.343.006.108-.006.203-.104.245-.123.052-.036.175-.099.27-.049.073-.123.112-.105.21.021.11-.105.196-.072.297.032.098-.027.166-.106.225-.084.062.039.202-.032.248-.072.047-.013.127-.061.196-.026.037-.111-.018-.089.068.023.087-.034.13-.06.226-.04.146-.01.301-.003.45.008.171.14.403.01.516-.076.065-.115.157-.076.26.039.102-.055.162-.076.259-.025.11.07.25-.03.335-.06.053-.047.031-.104.14-.044.085-.008.184.007.272.02.112-.09.143-.092.274-.006.358.015.715.015 1.073 0 .995.025 1.99-.001 2.985-.006.21-.133.465-.003.633.047.062.099.11.072.208-.018.067.026.054.072.157a.428.428 0 010 .303c-.029.087.065.125.075.201.015.132-.102.302-.01.397.027.028.114-.017.079.06-.032.073.009.07.077.092.11.034.006.241.075.212.104-.044.027.098.124.135.069.026.031.165.077.145.117-.05.04.08.12.136.108.074.157.177.281.264.046.033.114.01.152.086.057.108.178.063.263.16.068.075.224.047.246.135.03.122.04.154.191.125.101-.02.16.103.251.124.097.021.19.054.279.118.078.057.196.004.24.111.048.12.187.024.264.09.08.07.182.043.273.107.08.056.151.165.251.152.098-.013.18.062.263.103.083.04.17.068.263.102.058.02.12-.002.157.073.055.115.174.044.264.092.102.055.21.078.32.126.044.02.188.074.169.068-.058-.021-.104-.01-.032.038.092.062.19.035.304.065.04.01.14.036.04.032-.104-.004.072.089.125.07.097-.036.181-.02.22.076.04.094.089.114.19.127.089.012.188-.01.255.076.068.085.212 0 .256.077.056.1.18.106.28.115.093.007.126.139.233.091.113-.05.22-.01.3.064.066.061.146.116.247.075.089-.036.128.054.202.072.158.039.328-.067.478.033.126.085.284.043.419.013.096-.021.144.077.226.098.169.041.346.015.51-.027.11-.027.17.085.266.097.286.038.573-.008.86 0 .196.006.427.105.59-.007.086-.06.22.012.28-.07.04-.053.125-.016.15-.077.04-.094.09-.145.19-.126.096.017.134-.08.2-.134.036-.03.024.008.086-.068.047-.057.09-.1.204-.079.04.008.173-.08.102-.074-.145.015.045-.057.1-.074.052-.016.084-.035.158-.069.074-.033.103-.085.193-.137.058-.033.094-.073.174-.081.111-.01.204-.035.263-.132.04-.064.117-.034.16-.083a.395.395 0 01.207-.135c.123-.035.196-.138.276-.229.058-.066.101-.143.197-.113.102.032.118-.146.2-.134.128.02.165-.141.26-.197.056-.032.078-.072.16-.082.087-.01.17 0 .237-.095.063-.087.3-.07.259-.168-.031-.074.055-.174.121-.238.146-.14.306-.268.438-.423.072-.086.171-.136.269-.193.122-.072.159-.327.297-.29.13.034.125-.133.195-.195.037-.033.147.005.145-.104-.001-.098.1-.144.162-.204.201-.197.484-.337.603-.594.038-.082.03-.148.083-.254.04-.082.088-.004.142-.12.034-.074.084-.104.137-.193.036-.06.064-.094.067-.193.003-.104.185-.117.154-.223-.026-.089.035-.136.062-.231.04-.138-.052-.287.036-.42.064-.096.043-.218.042-.327 0-.101.026-.208-.008-.303-.034-.094-.102-.16-.135-.266-.013-.044-.012.012-.073-.067-.058-.074-.08-.186-.158-.247-.07-.055-.084-.123-.133-.206-.057-.095-.233-.13-.201-.265.025-.107-.086-.178-.153-.244-.109-.11-.193-.37-.338-.316-.1.038-.11-.093-.232-.06-.098.025.006-.097-.102-.095-.097.003-.172.014-.285-.048-.086-.047-.194.041-.274-.032-.097-.09-.235.015-.337-.035-.07-.035-.11-.085-.208-.087-.378-.006-.756-.013-1.133.005-.057.003.027.106-.07.079-.12-.034-.231.019-.328.08-.084.052-.18.064-.262.13-.062.05-.1.178-.2.134-.097-.044-.114.027-.21.07-.104.047-.13.215-.262.211-.11-.004-.172.152-.264.136-.08-.013.057-.018.009.072-.047.087-.158.052-.225.116-.047.044-.071.09-.157.088-.12-.005-.208.111-.324.132-.071.014-.095.09-.176.085-.082-.005-.118.098-.21.07-.102-.032-.127.096-.2.133-.117.06-.32-.106-.37.012-.029.063-.154.026-.134.072.048.112-.072.05-.134.105-.08.07-.173.128-.287.092-.066-.02-.043.036-.135.076-.084.037-.157-.013-.261.055-.082.054-.19.017-.283.012-.12-.006-.304-.106-.366.003-.052.089-.154.08-.245.082-.285.005-.623.158-.856-.007-.065-.046-.124-.114-.22-.073-.105.043-.124-.083-.226-.089-.204-.01-.428.116-.61.021-.079-.041-.216-.01-.243-.089-.021-.06-.018.042-.12-.006-.083-.039-.08-.22-.155-.198-.118.035-.234-.017-.32-.094-.073-.064-.205-.042-.245-.122-.044-.087-.135-.042-.195-.131-.038-.056.069.042-.033.02-.09-.018-.104-.172-.19-.157-.132.022-.156-.167-.263-.207-.055-.021-.115.034-.133-.057-.017-.082-.098-.118-.077-.224.021-.107-.025-.198-.098-.281-.1-.114-.044-.272-.039-.407.004-.105.059-.252-.038-.327-.09-.069-.052-.2-.039-.296.015-.103.09-.266-.011-.318-.102-.053-.078-.184-.06-.274.02-.1-.034-.23.05-.31.066-.064.038-.115.09-.226.026-.059-.05-.135.07-.15.126-.017.02-.237.09-.216.134.039-.004-.145.114-.198.091-.04.08-.136.074-.225-.008-.118.188-.186.15-.29-.034-.088.093-.097.063-.211-.022-.085-.015-.143.074-.192.084-.046.04-.133.07-.21.036-.093.191-.169.14-.264-.035-.065.039-.027.07-.086.044-.084.004-.183-.008-.272-.017-.126.186-.196.151-.305-.031-.1.104-.119.137-.193.037-.083-.062-.21.036-.258.075-.038.088-.103.114-.18.015-.044.062.004.082-.037.047-.094-.058-.318.045-.303.09.014.071-.15.065-.224-.009-.118.203-.134.155-.25-.049-.12.023-.234.114-.306.094-.075.077-.183.081-.297.003-.095.184-.11.151-.193-.035-.086-.022-.144.068-.193.097-.052.055-.157.13-.232a.281.281 0 00.073-.265c-.02-.104.178-.124.147-.203-.038-.096.027-.116.07-.21.034-.073.103-.094.137-.193.02-.057.038-.081.073-.157.034-.073.122-.09.137-.193.012-.086.141-.095.14-.193 0-.101.112-.008.192-.07.086-.066.084-.284.175-.252.073.025.176.024.186-.1.01-.13.224-.058.214-.16-.009-.087.046-.169.124-.21.066-.034.236-.005.165-.099-.06-.08.088-.26.126-.155.044.12.065-.093.095-.128.048-.057.093-.093.121-.197.02-.069.14-.023.174-.063.062-.073.038-.154.129-.227.126-.102.136-.28.248-.399.185-.194.32-.646.575-.564.092.03.117-.027.21-.07.103-.048.134-.252.256-.214.061.018.287-.075.185-.063-.144.016.046-.047.102-.07.056-.024.184 0 .157-.073-.03-.079.033-.058.105-.066.047-.004.06 0 .083-.084.026-.094.122-.064.215-.125.06-.04.1-.04.193-.07.076-.022.118-.111.223-.072.097.036.136-.076.201-.122.055-.038.078-.074.16-.085.088-.011.188.01.243-.095.045-.085.133-.086.209-.133.068-.043.038-.228.118-.198.097.037.11-.067.228-.066.097 0 .158-.076.245-.134.049-.031.056-.043.073-.113.019-.075.056-.074.137-.1.115-.036.138-.234.262-.217.096.014.108-.18.192-.143.1.043.101-.062.181-.121.047-.035.1-.027.163-.08.07-.06.052-.242.136-.22.084.022.181-.046.2-.124.023-.095.005-.198.002-.292zM169.127 117.813c.002-.749-.01-1.498.002-2.246.004-.231.127-.501-.002-.695-.073-.109-.081-.235-.077-.368.004-.156.142-.387.007-.472-.136-.085-.078-.261-.073-.394.004-.132.08-.31-.032-.411-.097-.087-.06-.236-.042-.348a.708.708 0 00-.049-.351c-.06-.17-.013-.355-.015-.532-.001-.453-.015-.906-.017-1.36-.001-.18-.085-.397.024-.543.085-.116.087-.262.076-.402-.016-.196-.039-.394.042-.594.067-.166.045-.353.025-.525-.037-.327.17-.705-.01-.982-.078-.12-.088-.258-.081-.401.009-.188.172-.453.017-.564-.12-.086-.101-.242-.091-.374.026-.346.016-.694.015-1.04-.001-.302 0-.603-.009-.904-.004-.128.09-.216.088-.356-.001-.182-.168-.443-.015-.548.121-.083.093-.242.094-.372.006-.51-.009-1.018-.004-1.529.001-.187.097-.41-.014-.563-.08-.11-.078-.243-.074-.376.005-.153.137-.38.005-.465-.124-.078-.09-.238-.089-.363.005-.385.017-.77.019-1.157.001-.683-.003-1.367.002-2.05.003-.343.266-.81.002-1.029-.107-.088-.093-.238-.094-.37-.005-.494.01-.987.009-1.481-.001-.254-.118-.543.01-.762a.53.53 0 00.082-.328c-.016-.152-.061-.32.033-.459.102-.151-.106-.39.04-.492.158-.111-.082-.389.055-.471.116-.07.088-.214.074-.33-.014-.108-.071-.26.031-.335.111-.082-.009-.22.043-.33.043-.094.13-.161.131-.283.001-.093.013-.288.087-.267.136.038.007-.13.114-.21.099-.076.123-.317.235-.281.173.055.095-.299.268-.2.081.046-.044.04.025-.075.056-.091.27.002.256-.077-.027-.168.224-.03.317-.048.066-.014-.012-.136.1-.085.117.055.02-.123.164-.083.097.027.154.05.183-.098.017-.09-.056-.292.038-.309.135-.024-.038-.227.07-.315.127-.104-.08-.326.05-.404.15-.091-.064-.326.055-.401.135-.086.084-.261.076-.394-.012-.219-.218-.602-.006-.656.062-.016.02-.049.14-.07.077-.014.102-.065.21-.07.11-.006.177-.126.297-.076.142.06.196-.092.355-.078.114.01.28.104.348-.002.075-.116.231-.054.346-.054h.335c-.047 0-.186-.01-.14 0 .127.029.209.027.212-.146.003-.158-.164-.458-.007-.472.068-.005.204-.172.211-.096.006.057-.123-.017-.012.019.065.021.02-.064.087-.075.155-.027.375-.13.473-.006.06.076.184-.006.227.075.08.153.312-.034.37.084.068.138.274-.045.33.056.052.096.111.175.21.14.093-.032.13.016.21.07.101.067-.047.068-.032.086.084.098.32.013.247.16-.045.09.018.083.087.116.148.071.191.158.245.318.02.057.099 0 .084.09-.02.12.095.206.188.255.114.062.124.19.192.28.07.096.269.08.246.254-.01.081.06.063.127.115.11.085.316.168.3.304-.015.12.115.202.2.267.109.084.19.191.268.312.104.16.246.294.382.427.185.178.309.498.564.527.15.017.123.306.239.266.12-.041.216.135.3.225.078.084.2.054.262.18.055.112.137.154.25.162.111.007.204.102.317.16.12.063.249.122.339.222.08.089.146.218.271.23.136.013.197.161.334.153a.276.276 0 01.282.158c.047.089.143.041.206.145.05.08.09.12.195.12.124-.002.208.115.334.163.095.036.186.049.246.13.1.14.335.114.406.276.057.127.19.089.295.14.13.061.16.253.33.27.147.016.213.143.333.208.089.048.182.062.247.156.055.078.172.055.21.14.067.147.21.125.33.196.096.057.135.19.262.212.12.02.217.11.286.208.072.102.207.057.27.191.057.125.205.063.267.195.066.138.152.158.296.23.128.063.22.167.332.264.095.08.134.114.291.165.1.032.148.09.252.155.095.059.15.125.265.201a.875.875 0 01.283.292c.064.116.192.076.291.136.18.107.232.335.383.467.102.09.12.25.249.315.086.043.134.087.125.19-.008.088.067.126.072.221.01.206.173.512-.003.62-.124.075-.105.234-.064.348.045.125-.086.206-.088.32-.001.14-.018.234-.065.4-.038.133-.088.228-.063.402.017.121-.039.225-.098.332-.059.106-.037.24-.132.332-.099.095-.127.167-.12.316.006.122-.106.207-.17.319-.067.118-.125.34-.267.314-.133-.024-.147.194-.264.207-.06.008-.057-.013-.14.07-.066.068-.077.251-.155.216-.085-.039-.129-.008-.195.064-.114.126-.282.187-.433.26-.145.07-.304.01-.46.03-.135.017-.236-.088-.384-.083-.143.005-.263-.154-.403-.137-.125.016-.23-.038-.334-.135-.055-.051-.135-.028-.177-.088-.055-.078-.164-.058-.21-.14-.072-.126-.232-.138-.315-.245a.741.741 0 00-.278-.222c-.106-.049-.14-.236-.262-.22-.072.01-.109-.009-.175-.07-.077-.072-.159-.05-.264-.135-.052-.042-.184-.021-.16-.082.042-.11-.11-.053-.171-.133-.081-.106-.202-.057-.31-.091-.051-.017-.179.047-.072-.049.051-.046-.128-.068-.171-.084-.106-.04.078-.022.02-.055-.121-.067-.226-.161-.36-.144-.128.017-.196-.007-.316-.132-.09-.093-.235-.108-.332-.194-.062-.055-.145-.044-.194-.106-.064-.082-.155-.085-.254-.16-.089-.066-.198-.09-.287-.175-.072-.069-.16-.078-.23-.155-.08-.09-.212-.098-.334-.153-.115-.053-.243-.076-.296-.197-.053-.123-.123-.179-.26-.125-.14.055-.189-.168-.297-.143-.09.02-.111-.054-.23-.063-.115-.009-.092-.154-.258-.14-.088.007-.128-.043-.214-.084-.116-.055-.26-.077-.332-.2-.06-.102-.138-.089-.242-.18-.058-.052-.089-.117-.178-.1-.097.019-.179-.002-.23-.083-.056-.086-.138-.092-.22-.143a1.302 1.302 0 00-.268-.133c-.12-.043-.196-.112-.315-.157-.111-.042-.182-.198-.298-.184-.145.017-.247-.08-.333-.2-.075-.104-.2-.074-.274-.2-.073-.128-.224-.084-.303-.23-.05-.092-.21-.065-.23-.156-.025-.125-.096.003-.19-.124-.076-.102-.172-.203-.3-.223-.053-.009-.027-.186-.042-.101a1.14 1.14 0 00-.009.324c.016.135-.052.23-.076.374-.027.16.053.325-.039.483-.072.125-.025.272-.025.409.002.367-.024.735.003 1.1.01.135-.01.26-.058.398a.733.733 0 00.004.475c.056.16-.116.234-.108.379.009.166.022.332.02.499-.003.33 0 .66-.006.99-.003.164-.134.406.006.494.13.082.09.25.076.378-.014.135-.025.274.041.409.098.202.018.415.031.636.005.082.063.04.063.058-.003.59.012 1.18-.003 1.77-.006.24-.191.568-.004.718.11.09.098.236.089.368a8.5 8.5 0 00-.012.962c.009.194-.107.42 0 .583.084.128.095.279.078.432-.01.089-.008.358-.008.268v-.14c-.003.201-.013.404.02.602.022.135-.09.227-.101.351-.022.24.006.48.001.722-.003.141-.112.352.01.426.126.075.108.235.065.348-.05.132.077.216.092.333.024.178-.085.368.01.532.041.07.045.068.043.169-.003.198-.115.436.01.596.076.1.085.228.076.349-.025.343-.015.689-.013 1.033.001.462-.031.926.003 1.387.01.134-.014.258-.059.398-.052.164-.038.342-.033.512.009.326.01.652.009.979 0 .168-.13.412.01.506.13.086.08.261.08.395 0 .311.253.768-.01.935-.12.077-.032.404-.147.354-.114-.05-.032.098-.13.138-.11.044-.258.09-.217.215.05.151-.223-.016-.203.14.017.137-.164.053-.213.133-.073.119-.228.021-.315.14-.089.12-.236.023-.333.126-.098.105-.234.098-.369.073-.13-.024-.177.09-.325.093-.543.01-1.086-.006-1.63.002-.215.003-.47.121-.644-.006-.067-.05-.123-.04-.22-.073-.121-.042-.081-.103-.266-.204-.058-.032-.04-.123-.116-.187-.081-.068-.18-.112-.264-.174zM184.532 78.112c-.118.067-.26.104-.35.21-.069.082-.145.167-.244.144-.176-.04-.288.141-.396.25-.079.08-.304.092-.275.182.032.097-.088.079-.174.14a.542.542 0 00-.241.37c-.012.107-.114.143-.152.266-.044.14-.144.084-.212.21-.061.112-.275.137-.273.22.002.077-.136.019-.22.126-.057.074-.122.16-.211.124-.093-.037-.013.13-.151.078-.142-.054-.21.123-.38.062-.17-.063-.239.083-.435.08-.138-.002-.248.067-.417.058-.185-.009-.405.11-.56 0-.11-.077-.367-.003-.35-.14.02-.164-.277-.188-.268-.33.007-.12-.039.005-.097-.058-.12-.125-.127-.602-.118-.426.007.139-.048.036-.087-.044-.057-.116-.085-.249-.2-.332-.121-.088-.049-.25-.173-.363-.125-.114-.075-.224-.107-.407-.018-.1-.063-.148-.07-.28-.012-.21-.176-.516 0-.63.123-.082.167-.205.14-.35-.026-.135.055-.208.155-.3.077-.07.189-.11.181-.24-.008-.148.11-.225.205-.337.086-.101.13-.19.192-.315.06-.121.082-.266.207-.318.157-.064.072-.28.213-.348.15-.073.206-.52.178-.375-.012.058.065.145.055.019-.012-.148.093-.208.17-.335.092-.153.4-.24.34-.409-.059-.159.118-.247.184-.368.023-.043.101-.254.09-.18-.023.162.063-.115.07-.171.018-.156.31-.18.283-.332-.027-.154.102-.203.208-.333.098-.121.227-.218.34-.328.194-.189.54-.311.57-.582.016-.151-.003-.306-.005-.46-.003-.375-.234-.832 0-1.127.052-.067.02-.131.066-.22.044-.086.054.084.085.03.07-.12.263-.183.203-.324-.048-.113.09-.014.07-.156-.022-.154.061-.258.21-.334.134-.067.177-.463.14-.322-.033.13.01.043.07-.028.104-.122.218-.268.414-.275.174-.006.47.077.48-.137.009-.18.305.037.367-.078.069-.128.165-.195.297-.142.093.037.021-.148.152-.078.108.058.293-.003.256-.076-.038-.074.154-.193.145-.138-.018.107.182-.083.2-.161.026-.11.243-.108.216-.19-.041-.122.058-.154.134-.265.087-.127.056.134.107-.005.044-.122.087-.235.178-.351.062-.08.236-.073.219-.155-.027-.125.07-.166.113-.309.027-.09.094-.133.088-.247-.007-.134.108-.237.205-.32.093-.082.211-.129.197-.273-.015-.16.276-.199.23-.334-.064-.186.278-.218.262-.366-.015-.143.037-.26.165-.321.151-.072.13-.213.263-.319.098-.078.218-.126.2-.27-.018-.16.214-.195.224-.336.01-.116.045-.155.135-.299.056-.088.091-.161.162-.249.11-.133.174-.463.333-.397.115.047.022-.038.14-.07.137-.038 0-.136.162-.224.145-.079.3-.204.259-.336-.07-.225.16-.283.307-.36.055-.029.115-.253.112-.14-.003.132.065-.1.08-.148.037-.126.178-.178.236-.29.062-.12.093-.263.19-.342.145-.119.274-.269.32-.451.025-.096.099-.126.125-.261.024-.125.126-.233.17-.354a.935.935 0 01.227-.333c.076-.075.085-.168.19-.25.098-.078.207-.126.2-.271-.007-.143.055-.249.173-.33.127-.088.143-.218.232-.34.105-.143.23-.267.309-.436.072-.155.219-.25.307-.398.053-.09.152-.122.17-.247.019-.133.072-.297.208-.351.167-.067.228-.171.265-.33.025-.11.17-.148.18-.266.015-.158.153-.194.194-.37.026-.106.094-.155.158-.264.072-.122.138-.226.268-.33.094-.074.189-.118.197-.259.01-.156.1-.282.179-.424.053-.096.079-.194.15-.261.077-.073.127-.135.108-.262-.02-.139.11-.236.136-.37.022-.109.092-.16.155-.28.058-.108.029-.289.14-.334.2-.082.072-.32.226-.448.123-.102.083-.273.223-.356.08-.048.182-.25.175-.213-.025.137.003-.163.062-.153.088.015.25-.023.215-.086-.056-.099.162-.035.029 0-.161.041.196-.04.18-.069-.038-.066.157-.188.06-.104-.147.129.069-.045.15-.014.115.043.013-.083.14-.089.139-.006.373-.12.417.012.032.1.023.166.14.14.157-.035.234.149.371.213.06.028.111.26.118.146.008-.13.05.127.086.15.11.074.027.212.14.314.1.091.14.176.128.314a.255.255 0 00.083.229c.121.111.101.212.124.384.018.131.04.219.079.371.042.166-.025.324.045.504.046.118.056.195.096.341.048.175.03.311.06.535.031.23.163.533 0 .7-.102.105-.175.206-.14.35.048.195-.153.31-.263.439a.846.846 0 00-.153.33c-.04.163-.224.277-.344.399-.105.106-.246.242-.222.39.016.094.034.154-.063.246-.11.103-.06.258-.177.379-.117.12-.069.259-.082.425-.01.131-.091.192-.091.35 0 .096.032.164-.07.246-.12.098-.098.228-.178.38-.063.12-.036.267-.14.387-.076.086-.155.116-.113.244.027.085-.108.283-.1.261.018-.057.089-.207.074-.05-.011.134.02.412-.108.335-.11-.066-.154.24-.14.143.022-.16-.045.12-.07.172-.07.138-.014.315-.106.441-.023.032-.09.019-.105.119-.012.08.036.162-.065.228-.118.079-.174.177-.148.313.018.095.045.166-.062.247-.125.096-.118.209-.168.371-.03.1-.168.025-.117.17.06.172-.002.24-.14.386-.069.072-.057.2-.155.229-.092.028-.076.01-.125.12-.04.09-.055.08-.082.226-.028.146-.143.227-.234.334-.099.117-.124.236-.22.364-.08.107-.127.234-.235.337-.073.07-.102.151-.16.23-.038.051-.01-.038-.025.05-.028.167-.198.22-.277.368-.062.116-.149.177-.192.316-.044.137-.147.19-.2.34-.029.08.046-.06-.06.07-.082.1-.11.193-.217.307-.077.083-.18.122-.186.259a.668.668 0 01-.083.3c-.027.059.06.026-.078.04-.098.008-.095.09-.143.186-.031.064-.042.053-.046.14-.007.157-.253.212-.226.351.018.095.028.148-.062.247-.104.114-.173.261-.26.393-.096.147-.136.328-.29.439-.11.08-.207.131-.215.283-.006.106-.077.154-.1.266-.03.145-.186.196-.232.335-.044.127-.202.163-.243.295-.02.068-.02.156-.085.206-.105.08-.112.225-.221.288-.128.074-.153.181-.22.308-.113.213-.169.464-.35.632-.1.093-.17.195-.174.316-.004.14-.093.256-.171.351-.049.06-.131.108-.108.192.025.09-.034.106-.063.229-.029.12-.001.22-.144.314-.09.06-.151.122-.143.227.007.096.01.158-.068.263-.08.11-.05.26-.19.327-.123.058-.152.39-.055.373.07-.012.127-.042.105.07-.024.126.048.317.156.285.099-.03.05.14.143.194.081.048.137.03.122.151-.014.107-.008.167.07.28.079.116.206.171.197.33-.01.14.173.228.153.37-.013.097.031.068.091.153.064.092.076.209.2.268.077.038-.013.072.045.128.093.09.178.208.224.327.048.12.139.23.231.344.138.17.322.287.452.47.133.186.237.4.43.535a.66.66 0 01.242.35c.068.203.42.246.4.452-.015.155.141.242.219.354.148.214.207.532.44.647.137.067.23.133.234.293.003.1.017.195.098.25.079.052.134.11.128.207-.006.095.106.144.062.268-.032.09.115.077.084.149-.062.143.02.19.053.358.016.074.03.202.094.193.152-.023.113.112.125.275.016.233.186.56 0 .7-.13.098-.19.393-.057.44.106.039.117.382.127.28.013-.132.049.05.089.08.111.082.136.206.227.297.105.106.184.328.33.307.15-.022.11.21.194.277.095.074.207.118.197.26-.01.14.064.23.169.319.104.087.069.227.145.365.075.133.171.275.122.421-.044.13-.068.252.067.315.178.083.056.243.125.401.046.106.088.175.09.32.002.07.016.068.065.19.059.143.02.251.077.437.04.132-.097.328.06.404.102.05.152.116.148.225-.004.14.107.257.199.353.137.143.378.188.464.364.08.164.238.184.4.178.093-.003.193-.05.25.06.057.113.21.182.226.306.015.114.08.236.169.335.086.096.088.4.166.303.028-.034-.017-.14.034-.027.067.146.062.315.137.456.037.07.055-.008.101.098.05.112.044.156.081.27.027.083.097.115.08.228-.026.164-.022.336.088.455.118.127-.023.316.077.438.128.155-.095.418.06.527.158.11-.077.38.055.47.185.127-.075.414.06.535.14.127.148.355.08.516-.06.14-.246.181-.276.357-.023.137-.05.142-.214.133-.109-.006-.16.09-.298.074-.141-.015-.32.055-.422-.065-.113-.13-.281-.054-.419-.157-.097-.072-.172-.153-.292-.141-.126.011-.205-.098-.343-.068-.106.023-.165-.083-.274-.066-.085.013-.163-.009-.213-.082-.052-.078-.11-.14-.207-.128-.125.015-.171-.087-.299-.154-.112-.058-.233-.069-.303-.165-.093-.129-.218-.188-.343-.275-.134-.094-.135-.327-.282-.372-.14-.041-.226-.15-.278-.283-.052-.135-.033-.332-.156-.412-.144-.094-.08-.24-.13-.4-.061-.2-.032-.415-.027-.62.007-.316.07-.636.028-.95a1.22 1.22 0 00-.164-.445c-.065-.12-.17-.207-.209-.35-.042-.151-.183-.23-.292-.327-.1-.092-.065-.171-.158-.317-.042-.066-.12-.11-.105-.195.019-.095.032-.151-.062-.247-.093-.096-.105-.22-.21-.33-.081-.087-.139-.175-.146-.28a.626.626 0 00-.153-.336c-.103-.125-.147-.316-.314-.37-.131-.041-.243-.174-.355-.282-.182-.177-.435-.314-.526-.553-.091-.241-.358-.344-.504-.545-.081-.112-.105-.287-.248-.33-.14-.044-.137-.256-.262-.279-.182-.033-.242-.151-.268-.314-.027-.173-.22-.248-.328-.386-.086-.111-.089-.252-.211-.368-.097-.092-.13-.22-.245-.31-.102-.079-.14-.165-.184-.286-.048-.136-.09-.264-.212-.337-.145-.086-.309-.22-.25-.381.038-.106-.005-.054-.047-.155-.035-.081-.052-.147-.109-.215-.078-.092-.207-.191-.195-.33.014-.151-.217-.215-.21-.35.008-.154-.163-.223-.232-.364-.167-.335-.468-.569-.732-.823-.138-.132-.318-.232-.415-.396-.053-.088-.102-.11-.188-.187-.114-.104-.332-.177-.323-.331.01-.196-.34-.222-.336-.395.005-.162-.244-.192-.269-.336-.018-.106-.174-.137-.166-.25.012-.145-.143-.217-.225-.335a7.805 7.805 0 00-.266-.362z"/></g></svg>